# Blender v2.74 (sub 0) OBJ File: ''
# www.blender.org
mtllib gameMode.mtl
o Text_Mesh
v 2.178981 0.000000 -0.256815
v 2.110233 0.000000 0.000000
v 1.952193 0.000000 0.000000
v 2.100751 0.000000 -0.553141
v 2.258396 0.000000 -0.553536
v 2.258396 0.000000 -0.553141
v 2.317661 0.000000 -0.553141
v 2.333070 0.000000 -0.316081
v 2.475701 0.000000 -0.553141
v 2.535362 0.000000 -0.553141
v 2.693007 0.000000 -0.553536
v 2.544844 0.000000 0.000000
v 2.386804 0.000000 0.000000
v 2.455551 0.000000 -0.257211
v 2.348874 0.000000 -0.079020
v 2.190834 0.000000 -0.079020
v 2.615962 0.000000 -0.118530
v 2.700909 0.000000 -0.434611
v 2.764915 0.000000 -0.497827
v 2.986962 0.000000 -0.497827
v 3.017384 0.000000 -0.434611
v 2.932438 0.000000 -0.118530
v 2.868036 0.000000 -0.055314
v 2.646780 0.000000 -0.055314
v 2.810352 0.000000 -0.371395
v 2.759383 0.000000 -0.181746
v 2.822995 0.000000 -0.181746
v 2.873568 0.000000 -0.371395
v 3.072698 0.000000 -0.497827
v 3.342157 0.000000 -0.497827
v 3.372580 0.000000 -0.434611
v 3.287633 0.000000 -0.118530
v 3.223232 0.000000 -0.055314
v 2.954563 0.000000 -0.055314
v 3.165942 0.000000 -0.371395
v 3.114974 0.000000 -0.181746
v 3.178190 0.000000 -0.181746
v 3.228763 0.000000 -0.371395
v 3.428684 0.000000 -0.497827
v 3.744370 0.000000 -0.497827
v 3.686685 0.000000 -0.371395
v 3.520743 0.000000 -0.371395
v 3.512050 0.000000 -0.339787
v 3.670091 0.000000 -0.339787
v 3.612801 0.000000 -0.213354
v 3.478467 0.000000 -0.213354
v 3.469774 0.000000 -0.181746
v 3.596207 0.000000 -0.181746
v 3.538917 0.000000 -0.055314
v 3.309759 0.000000 -0.055314
v 3.966416 0.000000 -0.118530
v 3.902410 0.000000 -0.055314
v 3.665349 0.000000 -0.055314
v 3.698933 0.000000 -0.181746
v 3.856973 0.000000 -0.181746
v 3.861319 0.000000 -0.197550
v 3.728565 0.000000 -0.292375
v 3.766890 0.000000 -0.434611
v 3.830897 0.000000 -0.497827
v 4.068352 0.000000 -0.497827
v 4.034373 0.000000 -0.371395
v 3.876333 0.000000 -0.371790
v 3.871987 0.000000 -0.355591
v 4.004741 0.000000 -0.260766
v 0.355591 0.000000 0.000000
v 0.059265 0.000000 0.000000
v 0.021335 0.000000 -0.079020
v 0.127222 0.000000 -0.474121
v 0.207033 0.000000 -0.553141
v 0.503753 0.000000 -0.553141
v 0.461478 0.000000 -0.395101
v 0.263927 0.000000 -0.395496
v 0.200316 0.000000 -0.158040
v 0.239826 0.000000 -0.158040
v 0.271829 0.000000 -0.276571
v 0.429870 0.000000 -0.276571
v 0.797313 0.000000 -0.497827
v 0.757803 0.000000 -0.055314
v 0.552351 0.000000 -0.055314
v 0.608455 0.000000 -0.181746
v 0.642434 0.000000 -0.181746
v 0.655077 0.000000 -0.320822
v 0.536547 0.000000 -0.055314
v 0.410115 0.000000 -0.055314
v 0.607665 0.000000 -0.497827
v 0.978665 0.000000 -0.260766
v 0.923746 0.000000 -0.055314
v 0.797313 0.000000 -0.055314
v 0.916239 0.000000 -0.497827
v 1.042276 0.000000 -0.498222
v 1.042276 0.000000 -0.497827
v 1.089688 0.000000 -0.497827
v 1.101936 0.000000 -0.308179
v 1.216120 0.000000 -0.497827
v 1.263927 0.000000 -0.497827
v 1.389964 0.000000 -0.498222
v 1.271434 0.000000 -0.055314
v 1.145002 0.000000 -0.055314
v 1.199921 0.000000 -0.261162
v 1.114184 0.000000 -0.118530
v 0.987752 0.000000 -0.118530
v 1.429870 0.000000 -0.497827
v 1.745555 0.000000 -0.497827
v 1.687870 0.000000 -0.371395
v 1.521928 0.000000 -0.371395
v 1.513236 0.000000 -0.339787
v 1.671276 0.000000 -0.339787
v 1.613986 0.000000 -0.213354
v 1.479652 0.000000 -0.213354
v 1.470960 0.000000 -0.181746
v 1.597392 0.000000 -0.181746
v 1.540103 0.000000 -0.055314
v 1.310944 0.000000 -0.055314
v 2.178981 0.443929 -0.256815
v 2.110233 0.443929 0.000000
v 1.952193 0.443929 0.000000
v 2.100751 0.443929 -0.553141
v 2.258396 0.443929 -0.553536
v 2.258396 0.443929 -0.553141
v 2.317661 0.443929 -0.553141
v 2.333070 0.443929 -0.316081
v 2.475701 0.443929 -0.553141
v 2.535362 0.443929 -0.553141
v 2.693007 0.443929 -0.553536
v 2.544844 0.443929 0.000000
v 2.386804 0.443929 0.000000
v 2.455551 0.443929 -0.257211
v 2.348874 0.443929 -0.079020
v 2.190834 0.443929 -0.079020
v 2.615962 0.443929 -0.118530
v 2.700909 0.443929 -0.434611
v 2.764915 0.443929 -0.497827
v 2.986962 0.443929 -0.497827
v 3.017384 0.443929 -0.434611
v 2.932438 0.443929 -0.118530
v 2.868036 0.443929 -0.055314
v 2.646780 0.443929 -0.055314
v 2.810352 0.443929 -0.371395
v 2.759383 0.443929 -0.181746
v 2.822995 0.443929 -0.181746
v 2.873568 0.443929 -0.371395
v 3.072698 0.443929 -0.497827
v 3.342157 0.443929 -0.497827
v 3.372580 0.443929 -0.434611
v 3.287633 0.443929 -0.118530
v 3.223232 0.443929 -0.055314
v 2.954563 0.443929 -0.055314
v 3.165942 0.443929 -0.371395
v 3.114974 0.443929 -0.181746
v 3.178190 0.443929 -0.181746
v 3.228763 0.443929 -0.371395
v 3.428684 0.443929 -0.497827
v 3.744370 0.443929 -0.497827
v 3.686685 0.443929 -0.371395
v 3.520743 0.443929 -0.371395
v 3.512050 0.443929 -0.339787
v 3.670091 0.443929 -0.339787
v 3.612801 0.443929 -0.213354
v 3.478467 0.443929 -0.213354
v 3.469774 0.443929 -0.181746
v 3.596207 0.443929 -0.181746
v 3.538917 0.443929 -0.055314
v 3.309759 0.443929 -0.055314
v 3.966416 0.443929 -0.118530
v 3.902410 0.443929 -0.055314
v 3.665349 0.443929 -0.055314
v 3.698933 0.443929 -0.181746
v 3.856973 0.443929 -0.181746
v 3.861319 0.443929 -0.197550
v 3.728565 0.443929 -0.292375
v 3.766890 0.443929 -0.434611
v 3.830897 0.443929 -0.497827
v 4.068352 0.443929 -0.497827
v 4.034373 0.443929 -0.371395
v 3.876333 0.443929 -0.371790
v 3.871987 0.443929 -0.355591
v 4.004741 0.443929 -0.260766
v 0.355591 0.443929 0.000000
v 0.059265 0.443929 0.000000
v 0.021335 0.443929 -0.079020
v 0.127222 0.443929 -0.474121
v 0.207033 0.443929 -0.553141
v 0.503753 0.443929 -0.553141
v 0.461478 0.443929 -0.395101
v 0.263927 0.443929 -0.395496
v 0.200316 0.443929 -0.158040
v 0.239826 0.443929 -0.158040
v 0.271829 0.443929 -0.276571
v 0.429870 0.443929 -0.276571
v 0.797313 0.443929 -0.497827
v 0.757803 0.443929 -0.055314
v 0.552351 0.443929 -0.055314
v 0.608455 0.443929 -0.181746
v 0.642434 0.443929 -0.181746
v 0.655077 0.443929 -0.320822
v 0.536547 0.443929 -0.055314
v 0.410115 0.443929 -0.055314
v 0.607665 0.443929 -0.497827
v 0.978665 0.443929 -0.260766
v 0.923746 0.443929 -0.055314
v 0.797313 0.443929 -0.055314
v 0.916239 0.443929 -0.497827
v 1.042276 0.443929 -0.498222
v 1.042276 0.443929 -0.497827
v 1.089688 0.443929 -0.497827
v 1.101936 0.443929 -0.308179
v 1.216120 0.443929 -0.497827
v 1.263927 0.443929 -0.497827
v 1.389964 0.443929 -0.498222
v 1.271434 0.443929 -0.055314
v 1.145002 0.443929 -0.055314
v 1.199921 0.443929 -0.261162
v 1.114184 0.443929 -0.118530
v 0.987752 0.443929 -0.118530
v 1.429870 0.443929 -0.497827
v 1.745555 0.443929 -0.497827
v 1.687870 0.443929 -0.371395
v 1.521928 0.443929 -0.371395
v 1.513236 0.443929 -0.339787
v 1.671276 0.443929 -0.339787
v 1.613986 0.443929 -0.213354
v 1.479652 0.443929 -0.213354
v 1.470960 0.443929 -0.181746
v 1.597392 0.443929 -0.181746
v 1.540103 0.443929 -0.055314
v 1.310944 0.443929 -0.055314
vn 0.000000 -1.000000 0.000000
vn 0.000000 1.000000 -0.000000
vn -0.914000 0.000000 -0.405600
vn 0.000000 0.000000 1.000000
vn 0.000000 0.000000 -1.000000
vn -0.964200 0.000000 -0.265200
vn 0.858000 0.000000 0.513700
vn 0.965700 0.000000 0.259500
vn 0.997900 0.000000 -0.064400
vn 0.966000 0.000000 0.258400
vn -0.966100 0.000000 -0.258200
vn -0.997800 0.000000 0.066500
vn -0.002500 0.000000 1.000000
vn -0.901500 0.000000 0.432700
vn 0.700500 0.000000 0.713600
vn -0.966200 0.000000 -0.257900
vn -0.581200 0.000000 0.813700
vn -0.965700 0.000000 -0.259500
vn -0.966200 0.000000 -0.257700
vn -0.965900 0.000000 -0.258900
vn 0.702700 0.000000 0.711500
vn -0.856900 0.000000 -0.515500
vn -0.913100 0.000000 -0.407700
vn 0.857100 0.000000 0.515200
vn 0.965800 0.000000 0.259400
vn -0.003100 0.000000 -1.000000
vn 0.964200 0.000000 0.265200
vn 0.581200 0.000000 -0.813700
vn -0.702700 0.000000 -0.711500
vn 0.910900 0.000000 0.412700
vn 0.997900 0.000000 -0.064900
vn 0.966000 0.000000 0.258600
vn -0.966500 0.000000 -0.256700
vn 1.000000 0.000000 0.000000
vn 0.901100 0.000000 -0.433600
vn -0.002000 0.000000 1.000000
vn -0.002500 0.000000 -1.000000
vn 0.909800 0.000000 0.415100
vn -0.898900 0.000000 0.438200
vn 0.913100 0.000000 0.407700
vn -0.995900 0.000000 -0.090500
vn 0.965800 0.000000 0.259100
vn -0.965800 0.000000 -0.259400
vn 0.965600 0.000000 0.260200
vn -0.965600 0.000000 -0.260200
vn 0.965900 0.000000 0.258800
vn -0.856700 0.000000 -0.515800
vn -0.703600 0.000000 -0.710600
vn -0.965400 0.000000 -0.260700
vn 0.966000 0.000000 0.258500
vn 0.996000 0.000000 0.088900
vn 0.966100 0.000000 0.258200
vn -0.966200 0.000000 -0.257800
vn -0.998000 0.000000 0.063800
usemtl None
s off
f 68//1 69//1 70//1
f 68//1 70//1 71//1
f 89//1 90//1 91//1
f 95//1 96//1 97//1
f 84//1 85//1 77//1
f 84//1 77//1 82//1
f 82//1 77//1 78//1
f 88//1 89//1 91//1
f 88//1 91//1 92//1
f 88//1 92//1 86//1
f 86//1 92//1 93//1
f 93//1 94//1 95//1
f 93//1 95//1 99//1
f 99//1 95//1 97//1
f 113//1 102//1 105//1
f 105//1 102//1 103//1
f 105//1 103//1 104//1
f 67//1 68//1 72//1
f 72//1 68//1 71//1
f 67//1 72//1 73//1
f 113//1 105//1 106//1
f 113//1 106//1 109//1
f 109//1 106//1 107//1
f 109//1 107//1 108//1
f 84//1 82//1 83//1
f 81//1 82//1 78//1
f 86//1 93//1 99//1
f 74//1 75//1 76//1
f 74//1 76//1 65//1
f 86//1 99//1 100//1
f 98//1 99//1 97//1
f 88//1 86//1 87//1
f 101//1 86//1 100//1
f 113//1 109//1 110//1
f 79//1 80//1 81//1
f 79//1 81//1 78//1
f 113//1 110//1 111//1
f 113//1 111//1 112//1
f 67//1 73//1 74//1
f 67//1 74//1 65//1
f 66//1 67//1 65//1
f 4//1 5//1 6//1
f 10//1 11//1 12//1
f 3//1 4//1 6//1
f 3//1 6//1 7//1
f 3//1 7//1 1//1
f 1//1 7//1 8//1
f 8//1 9//1 10//1
f 8//1 10//1 14//1
f 14//1 10//1 12//1
f 18//1 19//1 20//1
f 18//1 20//1 21//1
f 34//1 29//1 35//1
f 35//1 29//1 30//1
f 35//1 30//1 31//1
f 50//1 39//1 42//1
f 42//1 39//1 40//1
f 42//1 40//1 41//1
f 58//1 59//1 60//1
f 58//1 60//1 61//1
f 17//1 18//1 25//1
f 25//1 18//1 21//1
f 25//1 21//1 28//1
f 28//1 21//1 22//1
f 35//1 31//1 38//1
f 38//1 31//1 32//1
f 57//1 58//1 62//1
f 62//1 58//1 61//1
f 57//1 62//1 63//1
f 17//1 25//1 26//1
f 27//1 28//1 22//1
f 34//1 35//1 36//1
f 37//1 38//1 32//1
f 50//1 42//1 43//1
f 57//1 63//1 64//1
f 50//1 43//1 46//1
f 46//1 43//1 44//1
f 46//1 44//1 45//1
f 1//1 8//1 14//1
f 56//1 57//1 64//1
f 56//1 64//1 51//1
f 1//1 14//1 15//1
f 13//1 14//1 12//1
f 3//1 1//1 2//1
f 16//1 1//1 15//1
f 50//1 46//1 47//1
f 55//1 56//1 51//1
f 17//1 26//1 27//1
f 17//1 27//1 22//1
f 34//1 36//1 37//1
f 34//1 37//1 32//1
f 50//1 47//1 48//1
f 50//1 48//1 49//1
f 53//1 54//1 55//1
f 53//1 55//1 51//1
f 24//1 17//1 22//1
f 24//1 22//1 23//1
f 34//1 32//1 33//1
f 53//1 51//1 52//1
f 181//2 183//2 182//2
f 181//2 184//2 183//2
f 202//2 204//2 203//2
f 208//2 210//2 209//2
f 197//2 190//2 198//2
f 197//2 195//2 190//2
f 195//2 191//2 190//2
f 201//2 204//2 202//2
f 201//2 205//2 204//2
f 201//2 199//2 205//2
f 199//2 206//2 205//2
f 206//2 208//2 207//2
f 206//2 212//2 208//2
f 212//2 210//2 208//2
f 226//2 218//2 215//2
f 218//2 216//2 215//2
f 218//2 217//2 216//2
f 180//2 185//2 181//2
f 185//2 184//2 181//2
f 180//2 186//2 185//2
f 226//2 219//2 218//2
f 226//2 222//2 219//2
f 222//2 220//2 219//2
f 222//2 221//2 220//2
f 197//2 196//2 195//2
f 194//2 191//2 195//2
f 199//2 212//2 206//2
f 187//2 189//2 188//2
f 187//2 178//2 189//2
f 199//2 213//2 212//2
f 211//2 210//2 212//2
f 201//2 200//2 199//2
f 214//2 213//2 199//2
f 226//2 223//2 222//2
f 192//2 194//2 193//2
f 192//2 191//2 194//2
f 226//2 224//2 223//2
f 226//2 225//2 224//2
f 180//2 187//2 186//2
f 180//2 178//2 187//2
f 179//2 178//2 180//2
f 117//2 119//2 118//2
f 123//2 125//2 124//2
f 116//2 119//2 117//2
f 116//2 120//2 119//2
f 116//2 114//2 120//2
f 114//2 121//2 120//2
f 121//2 123//2 122//2
f 121//2 127//2 123//2
f 127//2 125//2 123//2
f 131//2 133//2 132//2
f 131//2 134//2 133//2
f 147//2 148//2 142//2
f 148//2 143//2 142//2
f 148//2 144//2 143//2
f 163//2 155//2 152//2
f 155//2 153//2 152//2
f 155//2 154//2 153//2
f 171//2 173//2 172//2
f 171//2 174//2 173//2
f 130//2 138//2 131//2
f 138//2 134//2 131//2
f 138//2 141//2 134//2
f 141//2 135//2 134//2
f 148//2 151//2 144//2
f 151//2 145//2 144//2
f 170//2 175//2 171//2
f 175//2 174//2 171//2
f 170//2 176//2 175//2
f 130//2 139//2 138//2
f 140//2 135//2 141//2
f 147//2 149//2 148//2
f 150//2 145//2 151//2
f 163//2 156//2 155//2
f 170//2 177//2 176//2
f 163//2 159//2 156//2
f 159//2 157//2 156//2
f 159//2 158//2 157//2
f 114//2 127//2 121//2
f 169//2 177//2 170//2
f 169//2 164//2 177//2
f 114//2 128//2 127//2
f 126//2 125//2 127//2
f 116//2 115//2 114//2
f 129//2 128//2 114//2
f 163//2 160//2 159//2
f 168//2 164//2 169//2
f 130//2 140//2 139//2
f 130//2 135//2 140//2
f 147//2 150//2 149//2
f 147//2 145//2 150//2
f 163//2 161//2 160//2
f 163//2 162//2 161//2
f 166//2 168//2 167//2
f 166//2 164//2 168//2
f 137//2 135//2 130//2
f 137//2 136//2 135//2
f 147//2 146//2 145//2
f 166//2 165//2 164//2
f 80//3 79//3 192//3 193//3
f 3//4 2//4 115//4 116//4
f 95//5 94//5 207//5 208//5
f 60//5 59//5 172//5 173//5
f 109//4 108//4 221//4 222//4
f 56//6 55//6 168//6 169//6
f 15//7 14//7 127//7 128//7
f 32//8 31//8 144//8 145//8
f 93//9 92//9 205//9 206//9
f 36//8 35//8 148//8 149//8
f 71//10 70//10 183//10 184//10
f 25//4 28//4 141//4 138//4
f 14//11 13//11 126//11 127//11
f 50//4 49//4 162//4 163//4
f 27//5 26//5 139//5 140//5
f 42//4 41//4 154//4 155//4
f 1//12 16//12 129//12 114//12
f 62//13 61//13 174//13 175//13
f 53//4 52//4 165//4 166//4
f 81//5 80//5 193//5 194//5
f 67//14 66//14 179//14 180//14
f 33//15 32//15 145//15 146//15
f 20//5 19//5 132//5 133//5
f 29//16 34//16 147//16 142//16
f 57//17 56//17 169//17 170//17
f 102//18 113//18 226//18 215//18
f 38//19 37//19 150//19 151//19
f 68//20 67//20 180//20 181//20
f 88//4 87//4 200//4 201//4
f 52//21 51//21 164//21 165//21
f 9//22 8//22 121//22 122//22
f 85//23 84//23 197//23 198//23
f 34//4 33//4 146//4 147//4
f 113//4 112//4 225//4 226//4
f 100//24 99//24 212//24 213//24
f 39//18 50//18 163//18 152//18
f 65//25 76//25 189//25 178//25
f 90//26 89//26 202//26 203//26
f 47//27 46//27 159//27 160//27
f 55//5 54//5 167//5 168//5
f 64//28 63//28 176//28 177//28
f 59//29 58//29 171//29 172//29
f 112//30 111//30 224//30 225//30
f 103//5 102//5 215//5 216//5
f 8//31 7//31 120//31 121//31
f 26//8 25//8 138//8 139//8
f 98//4 97//4 210//4 211//4
f 111//5 110//5 223//5 224//5
f 79//4 78//4 191//4 192//4
f 96//26 95//26 208//26 209//26
f 12//32 11//32 124//32 125//32
f 54//33 53//33 166//33 167//33
f 91//34 90//34 203//34 204//34
f 92//5 91//5 204//5 205//5
f 101//4 100//4 213//4 214//4
f 66//4 65//4 178//4 179//4
f 23//15 22//15 135//15 136//15
f 31//35 30//35 143//35 144//35
f 105//4 104//4 217//4 218//4
f 72//36 71//36 184//36 185//36
f 108//30 107//30 220//30 221//30
f 19//29 18//29 131//29 132//29
f 11//37 10//37 123//37 124//37
f 16//4 15//4 128//4 129//4
f 13//4 12//4 125//4 126//4
f 46//4 45//4 158//4 159//4
f 41//38 40//38 153//38 154//38
f 2//32 1//32 114//32 115//32
f 106//27 105//27 218//27 219//27
f 17//39 24//39 137//39 130//39
f 74//5 73//5 186//5 187//5
f 6//34 5//34 118//34 119//34
f 83//40 82//40 195//40 196//40
f 84//4 83//4 196//4 197//4
f 45//30 44//30 157//30 158//30
f 5//37 4//37 117//37 118//37
f 70//5 69//5 182//5 183//5
f 82//41 81//41 194//41 195//41
f 63//42 62//42 175//42 176//42
f 104//38 103//38 216//38 217//38
f 4//43 3//43 116//43 117//43
f 89//18 88//18 201//18 202//18
f 49//30 48//30 161//30 162//30
f 51//44 64//44 177//44 164//44
f 58//45 57//45 170//45 171//45
f 76//5 75//5 188//5 189//5
f 22//8 21//8 134//8 135//8
f 77//5 85//5 198//5 190//5
f 73//46 72//46 185//46 186//46
f 30//5 29//5 142//5 143//5
f 44//5 43//5 156//5 157//5
f 21//35 20//35 133//35 134//35
f 94//47 93//47 206//47 207//47
f 69//48 68//48 181//48 182//48
f 75//49 74//49 187//49 188//49
f 10//5 9//5 122//5 123//5
f 97//50 96//50 209//50 210//50
f 7//5 6//5 119//5 120//5
f 24//4 23//4 136//4 137//4
f 78//51 77//51 190//51 191//51
f 87//52 86//52 199//52 200//52
f 107//5 106//5 219//5 220//5
f 40//5 39//5 152//5 153//5
f 99//53 98//53 211//53 212//53
f 86//54 101//54 214//54 199//54
f 110//27 109//27 222//27 223//27
f 61//8 60//8 173//8 174//8
f 18//18 17//18 130//18 131//18
f 28//19 27//19 140//19 141//19
f 35//4 38//4 151//4 148//4
f 37//5 36//5 149//5 150//5
f 48//5 47//5 160//5 161//5
f 43//27 42//27 155//27 156//27
