# Blender v2.74 (sub 0) OBJ File: ''
# www.blender.org
mtllib tank1.mtl
o Cylinder
v -0.000000 -0.769902 -1.523984
v 0.000000 -0.022385 -1.000000
v 0.195090 -0.022385 -0.980785
v 0.297314 -0.769902 -1.494701
v 0.583203 -0.769902 -1.407978
v 0.846680 -0.769902 -1.267146
v 1.077619 -0.769902 -1.077619
v 1.267147 -0.769902 -0.846680
v 1.407978 -0.769902 -0.583203
v 1.494701 -0.769902 -0.297314
v 1.523984 -0.769902 0.000000
v 1.494701 -0.769902 0.297315
v 1.407978 -0.769902 0.583203
v 1.267147 -0.769902 0.846680
v 1.077619 -0.769902 1.077620
v 0.846680 -0.769902 1.267147
v 0.583203 -0.769902 1.407978
v 0.297314 -0.769902 1.494702
v -0.000001 -0.769902 1.523984
v -0.297315 -0.769902 1.494701
v -0.583204 -0.769902 1.407978
v -0.846681 -0.769902 1.267146
v -1.077620 -0.769902 1.077619
v -1.267147 -0.769902 0.846680
v -1.407978 -0.769902 0.583203
v -1.494702 -0.769902 0.297313
v -1.523984 -0.769902 -0.000001
v -1.494701 -0.769902 -0.297316
v -1.407977 -0.769902 -0.583205
v -1.267146 -0.769902 -0.846682
v -1.077618 -0.769902 -1.077621
v -0.846679 -0.769902 -1.267148
v -0.583202 -0.769902 -1.407978
v -0.297312 -0.769902 -1.494702
v -0.195089 -0.022385 -0.980786
v -0.382682 -0.022385 -0.923880
v -0.555569 -0.022385 -0.831470
v -0.707106 -0.022385 -0.707108
v -0.831469 -0.022385 -0.555571
v -0.923879 -0.022385 -0.382684
v -0.980785 -0.022385 -0.195091
v -1.000000 -0.022385 -0.000001
v -0.863389 -0.022385 0.018400
v -0.846748 -0.022385 -0.150560
v -0.797464 -0.022385 -0.313026
v -0.717431 -0.022385 -0.462756
v -0.609725 -0.022385 -0.593996
v -0.478486 -0.022385 -0.701701
v -0.328756 -0.022385 -0.781733
v -0.166289 -0.022385 -0.831017
v 0.002669 -0.022385 -0.847657
v 0.171629 -0.022385 -0.831016
v 0.334096 -0.022385 -0.781733
v 0.483826 -0.022385 -0.701700
v 0.615065 -0.022385 -0.593995
v 0.722771 -0.022385 -0.462755
v 0.802803 -0.022385 -0.313025
v 0.852087 -0.022385 -0.150559
v 0.868728 -0.022385 0.018401
v 0.923880 -0.022385 0.382683
v 0.980785 -0.022385 0.195090
v 1.000000 -0.022385 -0.000000
v 0.980785 -0.022385 -0.195090
v 0.923880 -0.022385 -0.382683
v 0.831470 -0.022385 -0.555570
v 0.707107 -0.022385 -0.707107
v 0.555570 -0.022385 -0.831470
v 0.382683 -0.022385 -0.923880
v 0.831470 -0.022385 0.555570
v 0.707107 -0.022385 0.707107
v 0.555570 -0.022385 0.831470
v 0.382683 -0.022385 0.923880
v 0.195090 -0.022385 0.980785
v -0.000000 -0.022385 1.000000
v -0.195091 -0.022385 0.980785
v -0.382684 -0.022385 0.923879
v -0.555571 -0.022385 0.831469
v -0.707107 -0.022385 0.707106
v -0.831470 -0.022385 0.555570
v -0.923880 -0.022385 0.382683
v -0.980785 -0.022385 0.195089
v 0.852087 -0.022385 0.187360
v 0.802803 -0.022385 0.349827
v 0.722771 -0.022385 0.499557
v 0.615065 -0.022385 0.630797
v 0.483826 -0.022385 0.738502
v 0.334096 -0.022385 0.818534
v 0.171629 -0.022385 0.867818
v 0.002669 -0.022385 0.884459
v -0.166291 -0.022385 0.867818
v -0.328757 -0.022385 0.818534
v -0.478487 -0.022385 0.738502
v -0.609727 -0.022385 0.630796
v -0.717432 -0.022385 0.499557
v -0.797464 -0.022385 0.349826
v -0.846748 -0.022385 0.187360
v -0.864569 -0.199689 0.018400
v -0.847905 -0.199689 -0.150790
v -0.798554 -0.199689 -0.313478
v -0.718413 -0.199689 -0.463412
v -0.610560 -0.199689 -0.594830
v -0.479142 -0.199689 -0.702682
v -0.329207 -0.199689 -0.782824
v -0.166519 -0.199689 -0.832174
v 0.002669 -0.199689 -0.848838
v 0.171859 -0.199689 -0.832174
v 0.334547 -0.199689 -0.782823
v 0.484481 -0.199689 -0.702682
v 0.615900 -0.199689 -0.594830
v 0.723752 -0.199689 -0.463411
v 0.803894 -0.199689 -0.313477
v 0.853244 -0.199689 -0.150789
v 0.869908 -0.199689 0.018401
v 0.853244 -0.199689 0.187591
v 0.803894 -0.199689 0.350279
v 0.723752 -0.199689 0.500213
v 0.615900 -0.199689 0.631631
v 0.484481 -0.199689 0.739483
v 0.334547 -0.199689 0.819625
v 0.171859 -0.199689 0.868976
v 0.002669 -0.199689 0.885639
v -0.166521 -0.199689 0.868976
v -0.329209 -0.199689 0.819625
v -0.479143 -0.199689 0.739483
v -0.610561 -0.199689 0.631631
v -0.718414 -0.199689 0.500212
v -0.798555 -0.199689 0.350278
v -0.847906 -0.199689 0.187590
v -0.680142 -0.199689 -0.007398
v -0.666457 -0.199689 -0.146338
v -0.625930 -0.199689 -0.279938
v -0.560117 -0.199689 -0.403064
v -0.471548 -0.199689 -0.510985
v -0.363627 -0.199689 -0.599554
v -0.240500 -0.199689 -0.665366
v -0.106900 -0.199689 -0.705893
v 0.032039 -0.199689 -0.719578
v 0.170978 -0.199689 -0.705893
v 0.304578 -0.199689 -0.665366
v 0.427705 -0.199689 -0.599554
v 0.535626 -0.199689 -0.510985
v 0.624195 -0.199689 -0.403063
v 0.690007 -0.199689 -0.279937
v 0.730534 -0.199689 -0.146337
v 0.744219 -0.199689 -0.007397
v 0.730535 -0.199689 0.131542
v 0.690007 -0.199689 0.265142
v 0.624195 -0.199689 0.388269
v 0.535626 -0.199689 0.496190
v 0.427705 -0.199689 0.584759
v 0.304578 -0.199689 0.650571
v 0.170978 -0.199689 0.691099
v 0.032038 -0.199689 0.704783
v -0.106901 -0.199689 0.691099
v -0.240501 -0.199689 0.650571
v -0.363628 -0.199689 0.584759
v -0.471549 -0.199689 0.496190
v -0.560118 -0.199689 0.388268
v -0.625930 -0.199689 0.265142
v -0.666457 -0.199689 0.131541
v 0.032039 -0.657134 -0.867494
v 0.199835 -0.657134 -0.850967
v 0.361183 -0.657134 -0.802023
v -0.135757 -0.657134 -0.850967
v -0.297105 -0.657134 -0.802023
v -0.445804 -0.657134 -0.722542
v -0.576141 -0.657134 -0.615578
v -0.683105 -0.657134 -0.485242
v -0.762586 -0.657134 -0.336543
v -0.811531 -0.657134 -0.175195
v -0.828058 -0.657134 -0.007398
v -0.811531 -0.657134 0.160398
v -0.762587 -0.657134 0.321747
v -0.683106 -0.657134 0.470446
v -0.576142 -0.657134 0.600782
v -0.445806 -0.657134 0.707746
v -0.297106 -0.657134 0.787228
v -0.135758 -0.657134 0.836173
v 0.032038 -0.657134 0.852699
v 0.199835 -0.657134 0.836173
v 0.361183 -0.657134 0.787228
v 0.509883 -0.657134 0.707747
v 0.640219 -0.657134 0.600783
v 0.747183 -0.657134 0.470447
v 0.826664 -0.657134 0.321747
v 0.875609 -0.657134 0.160399
v 0.892135 -0.657134 -0.007397
v 0.875608 -0.657134 -0.175194
v 0.826664 -0.657134 -0.336542
v 0.747183 -0.657134 -0.485241
v 0.640219 -0.657134 -0.615577
v 0.509883 -0.657134 -0.722541
vn 0.080400 0.572100 -0.816200
vn 0.000000 -1.000000 0.000000
vn -0.080400 0.572100 -0.816200
vn 0.000000 1.000000 0.000000
vn 0.238100 0.572100 -0.784800
vn 0.386600 0.572100 -0.723300
vn 0.520300 0.572100 -0.634000
vn 0.634000 0.572100 -0.520300
vn 0.723300 0.572100 -0.386600
vn 0.784800 0.572100 -0.238100
vn 0.816200 0.572100 -0.080400
vn 0.816200 0.572100 0.080400
vn 0.784800 0.572100 0.238100
vn 0.723300 0.572100 0.386600
vn 0.634000 0.572100 0.520300
vn 0.520300 0.572100 0.634000
vn 0.386600 0.572100 0.723300
vn 0.238100 0.572100 0.784800
vn 0.080400 0.572100 0.816200
vn -0.080400 0.572100 0.816200
vn -0.238100 0.572100 0.784800
vn -0.386600 0.572100 0.723300
vn -0.520300 0.572100 0.634000
vn -0.634000 0.572100 0.520300
vn -0.723300 0.572100 0.386600
vn -0.784800 0.572100 0.238100
vn -0.816200 0.572100 0.080400
vn -0.816200 0.572100 -0.080400
vn -0.784800 0.572100 -0.238100
vn -0.723300 0.572100 -0.386600
vn -0.634000 0.572100 -0.520300
vn -0.520300 0.572100 -0.634000
vn -0.386600 0.572100 -0.723300
vn -0.238100 0.572100 -0.784800
vn 0.995200 -0.006600 0.098000
vn 0.956900 -0.006600 0.290300
vn 0.881900 -0.006600 0.471400
vn 0.773000 -0.006600 0.634400
vn 0.634400 -0.006600 0.773000
vn 0.471400 -0.006600 0.881900
vn 0.290300 -0.006600 0.956900
vn 0.098000 -0.006600 0.995200
vn -0.098000 -0.006600 0.995200
vn -0.290300 -0.006600 0.956900
vn -0.471400 -0.006600 0.881900
vn -0.634400 -0.006600 0.773000
vn -0.773000 -0.006600 0.634400
vn -0.881900 -0.006600 0.471400
vn -0.956900 -0.006600 0.290300
vn -0.995200 -0.006600 0.098000
vn -0.995200 -0.006600 -0.098000
vn -0.956900 -0.006600 -0.290300
vn -0.881900 -0.006600 -0.471400
vn -0.773000 -0.006600 -0.634400
vn -0.634400 -0.006600 -0.773000
vn -0.471400 -0.006600 -0.881900
vn -0.290300 -0.006600 -0.956900
vn -0.098000 -0.006600 -0.995200
vn 0.098000 -0.006600 -0.995200
vn 0.290300 -0.006600 -0.956900
vn 0.471400 -0.006600 -0.881900
vn 0.634400 -0.006600 -0.773000
vn 0.773000 -0.006600 -0.634400
vn 0.881900 -0.006600 -0.471400
vn 0.956900 -0.006600 -0.290300
vn 0.995200 -0.006600 -0.098000
vn -0.093300 -0.306300 0.947300
vn -0.276300 -0.306300 0.910900
vn 0.093300 -0.306300 0.947300
vn -0.448700 -0.306300 0.839500
vn -0.603900 -0.306300 0.735800
vn -0.735800 -0.306300 0.603900
vn -0.839500 -0.306300 0.448700
vn -0.910900 -0.306300 0.276300
vn -0.947300 -0.306300 0.093300
vn -0.947300 -0.306300 -0.093300
vn -0.910900 -0.306300 -0.276300
vn -0.839500 -0.306300 -0.448700
vn -0.735800 -0.306300 -0.603900
vn -0.603900 -0.306300 -0.735800
vn -0.448700 -0.306300 -0.839500
vn -0.276300 -0.306300 -0.910900
vn -0.093300 -0.306300 -0.947300
vn 0.093300 -0.306300 -0.947300
vn 0.276300 -0.306300 -0.910900
vn 0.448700 -0.306300 -0.839500
vn 0.603900 -0.306300 -0.735800
vn 0.735800 -0.306300 -0.603900
vn 0.839500 -0.306300 -0.448700
vn 0.910900 -0.306300 -0.276300
vn 0.947300 -0.306300 -0.093300
vn 0.947300 -0.306300 0.093300
vn 0.910900 -0.306300 0.276300
vn 0.839500 -0.306300 0.448700
vn 0.735800 -0.306300 0.603900
vn 0.603900 -0.306300 0.735800
vn 0.448700 -0.306300 0.839500
vn 0.276300 -0.306300 0.910900
usemtl None
s off
f 1//1 2//1 3//1 4//1
f 1//2 4//2 5//2 6//2 7//2 8//2 9//2 10//2 11//2 12//2 13//2 14//2 15//2 16//2 17//2 18//2 19//2 20//2 21//2 22//2 23//2 24//2 25//2 26//2 27//2 28//2 29//2 30//2 31//2 32//2 33//2 34//2
f 34//3 35//3 2//3 1//3
f 2//4 35//4 36//4 37//4 38//4 39//4 40//4 41//4 42//4 43//4 44//4 45//4 46//4 47//4 48//4 49//4 50//4 51//4 52//4 53//4 54//4 55//4 56//4 57//4 58//4 59//4 60//4 61//4 62//4 63//4 64//4 65//4 66//4 67//4 68//4 3//4
f 4//5 3//5 68//5 5//5
f 5//6 68//6 67//6 6//6
f 6//7 67//7 66//7 7//7
f 7//8 66//8 65//8 8//8
f 8//9 65//9 64//9 9//9
f 9//10 64//10 63//10 10//10
f 10//11 63//11 62//11 11//11
f 11//12 62//12 61//12 12//12
f 12//13 61//13 60//13 13//13
f 13//14 60//14 69//14 14//14
f 14//15 69//15 70//15 15//15
f 15//16 70//16 71//16 16//16
f 16//17 71//17 72//17 17//17
f 17//18 72//18 73//18 18//18
f 18//19 73//19 74//19 19//19
f 19//20 74//20 75//20 20//20
f 20//21 75//21 76//21 21//21
f 21//22 76//22 77//22 22//22
f 22//23 77//23 78//23 23//23
f 23//24 78//24 79//24 24//24
f 24//25 79//25 80//25 25//25
f 25//26 80//26 81//26 26//26
f 26//27 81//27 42//27 27//27
f 27//28 42//28 41//28 28//28
f 28//29 41//29 40//29 29//29
f 29//30 40//30 39//30 30//30
f 30//31 39//31 38//31 31//31
f 31//32 38//32 37//32 32//32
f 32//33 37//33 36//33 33//33
f 33//34 36//34 35//34 34//34
f 60//4 59//4 82//4 83//4 84//4 85//4 86//4 87//4 88//4 89//4 90//4 91//4 92//4 93//4 94//4 95//4 96//4 43//4 42//4 81//4 80//4 79//4 78//4 77//4 76//4 75//4 74//4 73//4 72//4 71//4 70//4 69//4
f 44//35 43//35 97//35 98//35
f 45//36 44//36 98//36 99//36
f 46//37 45//37 99//37 100//37
f 47//38 46//38 100//38 101//38
f 48//39 47//39 101//39 102//39
f 49//40 48//40 102//40 103//40
f 50//41 49//41 103//41 104//41
f 51//42 50//42 104//42 105//42
f 52//43 51//43 105//43 106//43
f 53//44 52//44 106//44 107//44
f 54//45 53//45 107//45 108//45
f 55//46 54//46 108//46 109//46
f 56//47 55//47 109//47 110//47
f 57//48 56//48 110//48 111//48
f 58//49 57//49 111//49 112//49
f 59//50 58//50 112//50 113//50
f 82//51 59//51 113//51 114//51
f 83//52 82//52 114//52 115//52
f 84//53 83//53 115//53 116//53
f 85//54 84//54 116//54 117//54
f 86//55 85//55 117//55 118//55
f 87//56 86//56 118//56 119//56
f 88//57 87//57 119//57 120//57
f 89//58 88//58 120//58 121//58
f 90//59 89//59 121//59 122//59
f 91//60 90//60 122//60 123//60
f 92//61 91//61 123//61 124//61
f 93//62 92//62 124//62 125//62
f 94//63 93//63 125//63 126//63
f 95//64 94//64 126//64 127//64
f 96//65 95//65 127//65 128//65
f 43//66 96//66 128//66 97//66
f 105//4 104//4 103//4 102//4 101//4 100//4 99//4 98//4 97//4 129//4 130//4 131//4 132//4 133//4 134//4 135//4 136//4 137//4 138//4 139//4 140//4 141//4 142//4 143//4 144//4 115//4 114//4 113//4 112//4 111//4 110//4 109//4 108//4 107//4 106//4
f 97//4 128//4 127//4 126//4 125//4 124//4 123//4 122//4 121//4 120//4 119//4 118//4 117//4 116//4 115//4 144//4 145//4 146//4 147//4 148//4 149//4 150//4 151//4 152//4 153//4 154//4 155//4 156//4 157//4 158//4 159//4 160//4 129//4
f 138//67 137//67 161//67 162//67
f 139//68 138//68 162//68 163//68
f 161//4 164//4 165//4 166//4 167//4 168//4 169//4 170//4 171//4 172//4 173//4 174//4 175//4 176//4 177//4 178//4 179//4 180//4 181//4 182//4 183//4 184//4 185//4 186//4 187//4 188//4 189//4 190//4 191//4 192//4 163//4 162//4
f 137//69 136//69 164//69 161//69
f 140//70 139//70 163//70 192//70
f 141//71 140//71 192//71 191//71
f 142//72 141//72 191//72 190//72
f 143//73 142//73 190//73 189//73
f 144//74 143//74 189//74 188//74
f 145//75 144//75 188//75 187//75
f 146//76 145//76 187//76 186//76
f 147//77 146//77 186//77 185//77
f 148//78 147//78 185//78 184//78
f 149//79 148//79 184//79 183//79
f 150//80 149//80 183//80 182//80
f 151//81 150//81 182//81 181//81
f 152//82 151//82 181//82 180//82
f 153//83 152//83 180//83 179//83
f 154//84 153//84 179//84 178//84
f 155//85 154//85 178//85 177//85
f 156//86 155//86 177//86 176//86
f 157//87 156//87 176//87 175//87
f 158//88 157//88 175//88 174//88
f 159//89 158//89 174//89 173//89
f 160//90 159//90 173//90 172//90
f 129//91 160//91 172//91 171//91
f 130//92 129//92 171//92 170//92
f 131//93 130//93 170//93 169//93
f 132//94 131//94 169//94 168//94
f 133//95 132//95 168//95 167//95
f 134//96 133//96 167//96 166//96
f 135//97 134//97 166//97 165//97
f 136//98 135//98 165//98 164//98
