# Blender v2.74 (sub 0) OBJ File: ''
# www.blender.org
mtllib tomato2.mtl
o Cylinder_Cylinder.007
v 1.331627 0.285563 -0.709329
v 1.331627 0.220035 -0.709329
v 1.328085 0.285563 -0.709522
v 1.328085 0.220035 -0.709522
v 1.324584 0.285563 -0.710096
v 1.324584 0.220035 -0.710096
v 1.321166 0.285563 -0.711045
v 1.321166 0.220035 -0.711045
v 1.317870 0.285563 -0.712358
v 1.317870 0.220035 -0.712358
v 1.314736 0.285563 -0.714019
v 1.314736 0.220035 -0.714019
v 1.311799 0.285563 -0.716010
v 1.311799 0.220035 -0.716010
v 1.309096 0.285563 -0.718307
v 1.309096 0.220035 -0.718307
v 1.306656 0.285563 -0.720883
v 1.306656 0.220035 -0.720883
v 1.304509 0.285563 -0.723707
v 1.304509 0.220035 -0.723707
v 1.302680 0.285563 -0.726747
v 1.302680 0.220035 -0.726747
v 1.301190 0.285563 -0.729966
v 1.301190 0.220035 -0.729966
v 1.300058 0.285563 -0.733328
v 1.300058 0.220035 -0.733328
v 1.299295 0.285563 -0.736793
v 1.299295 0.220035 -0.736793
v 1.298911 0.285563 -0.740320
v 1.298911 0.220035 -0.740320
v 1.298911 0.285563 -0.743867
v 1.298911 0.220035 -0.743867
v 1.299295 0.285563 -0.747394
v 1.299295 0.220035 -0.747394
v 1.300058 0.285563 -0.750859
v 1.300058 0.220035 -0.750859
v 1.301190 0.285563 -0.754221
v 1.301190 0.220035 -0.754221
v 1.302680 0.285563 -0.757441
v 1.302680 0.220035 -0.757441
v 1.304509 0.285563 -0.760480
v 1.304509 0.220035 -0.760480
v 1.306656 0.285563 -0.763305
v 1.306656 0.220035 -0.763305
v 1.309096 0.285563 -0.765880
v 1.309096 0.220035 -0.765880
v 1.311799 0.285563 -0.768177
v 1.311799 0.220035 -0.768177
v 1.314736 0.285563 -0.770168
v 1.314736 0.220035 -0.770168
v 1.317870 0.285563 -0.771829
v 1.317870 0.220035 -0.771829
v 1.321166 0.285563 -0.773143
v 1.321166 0.220035 -0.773143
v 1.324584 0.285563 -0.774092
v 1.324584 0.220035 -0.774092
v 1.328085 0.285563 -0.774666
v 1.328085 0.220035 -0.774666
v 1.331627 0.285563 -0.774858
v 1.331627 0.220035 -0.774858
v 1.335170 0.285563 -0.774666
v 1.335170 0.220035 -0.774666
v 1.338671 0.285563 -0.774092
v 1.338671 0.220035 -0.774092
v 1.342089 0.285563 -0.773143
v 1.342089 0.220035 -0.773143
v 1.345385 0.285563 -0.771829
v 1.345385 0.220035 -0.771829
v 1.348519 0.285563 -0.770168
v 1.348519 0.220035 -0.770168
v 1.351455 0.285563 -0.768177
v 1.351455 0.220035 -0.768177
v 1.354159 0.285563 -0.765880
v 1.354159 0.220035 -0.765880
v 1.356599 0.285563 -0.763305
v 1.356599 0.220035 -0.763305
v 1.358746 0.285563 -0.760480
v 1.358746 0.220035 -0.760480
v 1.360575 0.285563 -0.757441
v 1.360575 0.220035 -0.757441
v 1.362064 0.285563 -0.754221
v 1.362064 0.220035 -0.754221
v 1.363197 0.285563 -0.750859
v 1.363197 0.220035 -0.750859
v 1.363960 0.285563 -0.747394
v 1.363960 0.220035 -0.747394
v 1.364343 0.285563 -0.743867
v 1.364343 0.220035 -0.743867
v 1.364343 0.285563 -0.740320
v 1.364343 0.220035 -0.740320
v 1.363960 0.285563 -0.736793
v 1.363960 0.220035 -0.736793
v 1.363197 0.285563 -0.733328
v 1.363197 0.220035 -0.733328
v 1.362064 0.285563 -0.729966
v 1.362064 0.220035 -0.729966
v 1.360575 0.285563 -0.726747
v 1.360575 0.220035 -0.726747
v 1.358746 0.285563 -0.723707
v 1.358746 0.220035 -0.723707
v 1.356599 0.285563 -0.720883
v 1.356599 0.220035 -0.720883
v 1.354159 0.285563 -0.718307
v 1.354159 0.220035 -0.718307
v 1.351455 0.285563 -0.716010
v 1.351455 0.220035 -0.716010
v 1.348519 0.285563 -0.714019
v 1.348519 0.220035 -0.714019
v 1.345385 0.285563 -0.712358
v 1.345385 0.220035 -0.712358
v 1.342089 0.285563 -0.711045
v 1.342089 0.220035 -0.711045
v 1.338671 0.285563 -0.710096
v 1.338671 0.220035 -0.710096
v 1.335170 0.285563 -0.709522
v 1.335170 0.220035 -0.709522
vn 0.054100 0.000000 -0.998500
vn 0.161800 0.000000 -0.986800
vn 0.267500 0.000000 -0.963500
vn 0.370100 0.000000 -0.929000
vn 0.468400 0.000000 -0.883500
vn 0.561200 0.000000 -0.827700
vn 0.647400 0.000000 -0.762200
vn 0.726000 0.000000 -0.687700
vn 0.796100 0.000000 -0.605200
vn 0.856900 0.000000 -0.515600
vn 0.907600 0.000000 -0.419900
vn 0.947700 0.000000 -0.319300
vn 0.976600 0.000000 -0.215000
vn 0.994100 0.000000 -0.108100
vn 1.000000 0.000000 0.000000
vn 0.994100 0.000000 0.108100
vn 0.976600 0.000000 0.215000
vn 0.947700 0.000000 0.319300
vn 0.907600 0.000000 0.419900
vn 0.856900 0.000000 0.515600
vn 0.796100 0.000000 0.605200
vn 0.726000 0.000000 0.687700
vn 0.647400 0.000000 0.762200
vn 0.561200 0.000000 0.827700
vn 0.468400 0.000000 0.883500
vn 0.370100 0.000000 0.929000
vn 0.267500 0.000000 0.963600
vn 0.161800 0.000000 0.986800
vn 0.054100 0.000000 0.998500
vn -0.054100 0.000000 0.998500
vn -0.161800 0.000000 0.986800
vn -0.267500 0.000000 0.963600
vn -0.370100 0.000000 0.929000
vn -0.468400 0.000000 0.883500
vn -0.561200 0.000000 0.827700
vn -0.647400 0.000000 0.762200
vn -0.726000 0.000000 0.687700
vn -0.796100 0.000000 0.605200
vn -0.856900 0.000000 0.515600
vn -0.907600 0.000000 0.419900
vn -0.947600 0.000000 0.319300
vn -0.976600 0.000000 0.215000
vn -0.994100 0.000000 0.108100
vn -1.000000 0.000000 0.000000
vn -0.994100 0.000000 -0.108100
vn -0.976600 0.000000 -0.215000
vn -0.947700 0.000000 -0.319300
vn -0.907600 0.000000 -0.419900
vn -0.856900 0.000000 -0.515600
vn -0.796100 0.000000 -0.605200
vn -0.726000 0.000000 -0.687700
vn -0.647400 0.000000 -0.762200
vn -0.561200 0.000000 -0.827700
vn -0.468400 0.000000 -0.883500
vn -0.370100 0.000000 -0.929000
vn -0.267500 0.000000 -0.963500
vn 0.000000 1.000000 0.000000
vn -0.054100 0.000000 -0.998500
vn -0.161800 0.000000 -0.986800
vn 0.000000 -1.000000 0.000000
usemtl None
s off
f 1//1 2//1 4//1 3//1
f 3//2 4//2 6//2 5//2
f 5//3 6//3 8//3 7//3
f 7//4 8//4 10//4 9//4
f 9//5 10//5 12//5 11//5
f 11//6 12//6 14//6 13//6
f 13//7 14//7 16//7 15//7
f 15//8 16//8 18//8 17//8
f 17//9 18//9 20//9 19//9
f 19//10 20//10 22//10 21//10
f 21//11 22//11 24//11 23//11
f 23//12 24//12 26//12 25//12
f 25//13 26//13 28//13 27//13
f 27//14 28//14 30//14 29//14
f 29//15 30//15 32//15 31//15
f 31//16 32//16 34//16 33//16
f 33//17 34//17 36//17 35//17
f 35//18 36//18 38//18 37//18
f 37//19 38//19 40//19 39//19
f 39//20 40//20 42//20 41//20
f 41//21 42//21 44//21 43//21
f 43//22 44//22 46//22 45//22
f 45//23 46//23 48//23 47//23
f 47//24 48//24 50//24 49//24
f 49//25 50//25 52//25 51//25
f 51//26 52//26 54//26 53//26
f 53//27 54//27 56//27 55//27
f 55//28 56//28 58//28 57//28
f 57//29 58//29 60//29 59//29
f 59//30 60//30 62//30 61//30
f 61//31 62//31 64//31 63//31
f 63//32 64//32 66//32 65//32
f 65//33 66//33 68//33 67//33
f 67//34 68//34 70//34 69//34
f 69//35 70//35 72//35 71//35
f 71//36 72//36 74//36 73//36
f 73//37 74//37 76//37 75//37
f 75//38 76//38 78//38 77//38
f 77//39 78//39 80//39 79//39
f 79//40 80//40 82//40 81//40
f 81//41 82//41 84//41 83//41
f 83//42 84//42 86//42 85//42
f 85//43 86//43 88//43 87//43
f 87//44 88//44 90//44 89//44
f 89//45 90//45 92//45 91//45
f 91//46 92//46 94//46 93//46
f 93//47 94//47 96//47 95//47
f 95//48 96//48 98//48 97//48
f 97//49 98//49 100//49 99//49
f 99//50 100//50 102//50 101//50
f 101//51 102//51 104//51 103//51
f 103//52 104//52 106//52 105//52
f 105//53 106//53 108//53 107//53
f 107//54 108//54 110//54 109//54
f 109//55 110//55 112//55 111//55
f 111//56 112//56 114//56 113//56
f 4//57 2//57 116//57 114//57 112//57 110//57 108//57 106//57 104//57 102//57 100//57 98//57 96//57 94//57 92//57 90//57 88//57 86//57 84//57 82//57 80//57 78//57 76//57 74//57 72//57 70//57 68//57 66//57 64//57 62//57 60//57 58//57 56//57 54//57 52//57 50//57 48//57 46//57 44//57 42//57 40//57 38//57 36//57 34//57 32//57 30//57 28//57 26//57 24//57 22//57 20//57 18//57 16//57 14//57 12//57 10//57 8//57 6//57
f 115//58 116//58 2//58 1//58
f 113//59 114//59 116//59 115//59
f 1//60 3//60 5//60 7//60 9//60 11//60 13//60 15//60 17//60 19//60 21//60 23//60 25//60 27//60 29//60 31//60 33//60 35//60 37//60 39//60 41//60 43//60 45//60 47//60 49//60 51//60 53//60 55//60 57//60 59//60 61//60 63//60 65//60 67//60 69//60 71//60 73//60 75//60 77//60 79//60 81//60 83//60 85//60 87//60 89//60 91//60 93//60 95//60 97//60 99//60 101//60 103//60 105//60 107//60 109//60 111//60 113//60 115//60
o Icosphere_Icosphere.001
v 1.331627 -0.185970 -0.742094
v 1.954058 -0.070079 -0.328177
v 1.076459 -0.070079 -0.360097
v 0.774654 -0.070079 -0.742094
v 1.076459 -0.070079 -1.162780
v 1.811159 -0.070079 -1.086730
v 1.586795 0.117437 -0.360097
v 0.765517 0.117437 -0.358733
v 0.684705 0.117437 -1.170528
v 1.586795 0.117437 -1.162780
v 1.701259 0.117437 -0.742094
v 1.331627 0.233328 -0.742094
v 1.177407 -0.152511 -0.408981
v 1.706712 -0.152511 -0.480310
v 1.571269 -0.085212 -0.386385
v 1.666206 -0.085212 -0.742094
v 1.706712 -0.152511 -1.008253
v 0.919214 -0.152511 -0.742094
v 0.786957 -0.085213 -0.371732
v 1.177407 -0.152511 -1.091385
v 0.714988 -0.085213 -1.150135
v 1.571269 -0.085212 -1.136492
v 1.856086 0.023679 -0.530415
v 1.657663 0.023679 -0.952262
v 1.331627 0.023679 -0.225253
v 1.912262 0.023679 -0.064265
v 0.818250 0.023679 -0.530415
v 0.750993 0.023679 -0.064265
v 0.750993 0.023679 -1.432127
v 0.706038 0.023679 -0.953773
v 1.912262 0.023679 -1.432127
v 1.331627 0.023679 -1.275849
v 1.924517 0.132571 -0.348244
v 1.091986 0.132571 -0.386385
v 0.809706 0.132571 -0.742094
v 1.091986 0.132571 -1.136492
v 1.797254 0.132571 -1.084173
v 1.485848 0.199870 -0.408981
v 1.662000 0.199870 -0.742094
v 0.936941 0.199870 -0.476582
v 0.936941 0.199870 -1.011606
v 1.485848 0.199870 -1.091385
vn 0.014400 -0.994200 0.106500
vn 0.457100 -0.841800 -0.287100
vn -0.080700 -0.994800 0.062600
vn -0.080700 -0.994900 -0.059700
vn 0.016100 -0.994600 -0.102400
vn 0.780800 -0.329400 -0.530900
vn 0.004800 -0.825200 0.564800
vn -0.940800 0.335900 0.045000
vn 0.026600 -0.933700 -0.357100
vn 0.108800 -0.966900 -0.230600
vn 0.783100 0.614700 -0.094400
vn 0.114300 -0.903900 0.412200
vn -0.958700 -0.127900 0.254100
vn 0.122500 -0.882000 -0.455000
vn 0.698600 0.612100 0.370600
vn -0.051800 0.461700 0.885500
vn 0.011900 0.811100 0.584700
vn -0.348800 0.934700 0.068700
vn -0.021300 0.639500 -0.768500
vn 0.871100 0.414900 0.262800
vn 0.100600 0.993600 -0.050700
vn 0.212400 0.971300 -0.107100
vn 0.178700 0.760000 -0.624800
vn -0.014800 0.994700 -0.101800
vn -0.079600 0.832900 -0.547700
vn 0.006300 0.883500 -0.468300
vn -0.084500 0.996400 0.000000
vn -0.467600 0.884000 0.000000
vn -0.442000 0.896900 -0.015500
vn -0.013000 0.994300 0.105900
vn -0.084400 0.723700 0.685000
vn -0.031900 0.480700 0.876300
vn 0.100600 0.993500 0.053200
vn 0.141100 0.987200 0.074600
vn 0.798300 0.380200 -0.467100
vn 0.699000 -0.695700 0.165400
vn 0.769200 -0.491700 0.408100
vn 0.038300 0.957200 -0.286900
vn -0.009400 0.780000 -0.625700
vn 0.125800 0.875000 -0.467400
vn -0.006600 0.940800 -0.338900
vn -0.895300 0.370000 0.248100
vn -0.890500 0.389000 0.236000
vn -0.943300 -0.309100 -0.120900
vn -0.018600 0.953000 0.302500
vn 0.118800 0.895700 0.428600
vn -0.004800 0.825200 0.564800
vn -0.054300 0.933100 0.355500
vn 0.914100 -0.390200 -0.110200
vn 0.829500 0.283600 -0.481100
vn -0.122500 0.882000 -0.455000
vn -0.125800 -0.875000 -0.467400
vn 0.009400 -0.780000 -0.625700
vn -0.910300 -0.404900 -0.085600
vn -0.991900 0.086600 -0.093200
vn -0.927300 -0.343700 0.148300
vn -0.949300 -0.283100 -0.137000
vn -0.986900 0.076100 -0.142400
vn 0.035600 -0.940700 0.337300
vn -0.114300 0.903900 0.412200
vn -0.118800 -0.895700 0.428600
vn -0.013300 -0.942900 0.332900
vn 0.798400 0.470600 -0.375600
vn 0.723700 -0.600300 -0.340400
vn 0.680300 0.661700 0.315200
vn 0.172900 -0.785200 -0.594600
vn 0.083300 -0.843500 -0.530700
vn 0.021300 -0.639500 -0.768500
vn 0.000900 -0.654000 -0.756500
vn -0.131300 -0.986600 -0.097000
vn -0.492700 -0.864000 0.104100
vn -0.495300 -0.868500 -0.019000
vn -0.157300 -0.980000 0.121900
vn -0.007400 -0.516700 0.856100
vn 0.713700 -0.645500 0.271800
vn 0.856800 0.515700 0.000000
vn 0.088800 -0.996000 0.000000
vn 0.031900 -0.480700 0.876300
vn 0.089200 -0.744300 0.661900
vn -0.048000 -0.843400 0.535100
usemtl None
s off
f 117//61 130//61 129//61
f 118//62 130//62 132//62
f 117//63 129//63 134//63
f 117//64 134//64 136//64
f 117//65 136//65 133//65
f 118//66 132//66 139//66
f 119//67 131//67 141//67
f 120//68 135//68 143//68
f 121//69 137//69 145//69
f 122//70 138//70 147//70
f 118//71 139//71 142//71
f 119//72 141//72 144//72
f 120//73 143//73 146//73
f 121//74 145//74 148//74
f 122//75 147//75 140//75
f 123//76 149//76 154//76
f 124//77 150//77 156//77
f 125//78 151//78 157//78
f 126//79 152//79 158//79
f 127//80 153//80 155//80
f 155//81 158//81 128//81
f 155//82 153//82 158//82
f 153//83 126//83 158//83
f 158//84 157//84 128//84
f 158//85 152//85 157//85
f 152//86 125//86 157//86
f 157//87 156//87 128//87
f 157//88 151//88 156//88
f 151//89 124//89 156//89
f 156//90 154//90 128//90
f 156//91 150//91 154//91
f 150//92 123//92 154//92
f 154//93 155//93 128//93
f 154//94 149//94 155//94
f 149//95 127//95 155//95
f 140//96 153//96 127//96
f 140//97 147//97 153//97
f 147//98 126//98 153//98
f 148//99 152//99 126//99
f 148//100 145//100 152//100
f 145//101 125//101 152//101
f 146//102 151//102 125//102
f 146//103 143//103 151//103
f 143//104 124//104 151//104
f 144//105 150//105 124//105
f 144//106 141//106 150//106
f 141//107 123//107 150//107
f 142//108 149//108 123//108
f 142//109 139//109 149//109
f 139//110 127//110 149//110
f 147//111 148//111 126//111
f 147//112 138//112 148//112
f 138//113 121//113 148//113
f 145//114 146//114 125//114
f 145//115 137//115 146//115
f 137//116 120//116 146//116
f 143//117 144//117 124//117
f 143//118 135//118 144//118
f 135//119 119//119 144//119
f 141//120 142//120 123//120
f 141//121 131//121 142//121
f 131//122 118//122 142//122
f 139//123 140//123 127//123
f 139//124 132//124 140//124
f 132//125 122//125 140//125
f 133//126 138//126 122//126
f 133//127 136//127 138//127
f 136//128 121//128 138//128
f 136//129 137//129 121//129
f 136//130 134//130 137//130
f 134//131 120//131 137//131
f 134//132 135//132 120//132
f 134//133 129//133 135//133
f 129//134 119//134 135//134
f 132//135 133//135 122//135
f 132//136 130//136 133//136
f 130//137 117//137 133//137
f 129//138 131//138 119//138
f 129//139 130//139 131//139
f 130//140 118//140 131//140
