# Blender v2.74 (sub 0) OBJ File: ''
# www.blender.org
mtllib ufo.mtl
o Cylinder
v 0.000000 -1.000000 -1.000000
v 0.000000 -0.680850 -0.680318
v 0.195090 -1.000000 -0.980785
v 0.132723 -0.680850 -0.667246
v 0.382683 -1.000000 -0.923880
v 0.260346 -0.680850 -0.628532
v 0.555570 -1.000000 -0.831470
v 0.377964 -0.680850 -0.565664
v 0.707107 -1.000000 -0.707107
v 0.481057 -0.680850 -0.481057
v 0.831470 -1.000000 -0.555570
v 0.565664 -0.680850 -0.377964
v 0.923880 -1.000000 -0.382683
v 0.628532 -0.680850 -0.260346
v 0.980785 -1.000000 -0.195090
v 0.667246 -0.680850 -0.132724
v 1.000000 -1.000000 -0.000000
v 0.680318 -0.680850 -0.000000
v 0.980785 -1.000000 0.195090
v 0.667246 -0.680850 0.132723
v 0.923880 -1.000000 0.382683
v 0.628532 -0.680850 0.260346
v 0.831470 -1.000000 0.555570
v 0.565664 -0.680850 0.377964
v 0.707107 -1.000000 0.707107
v 0.481057 -0.680850 0.481057
v 0.555570 -1.000000 0.831470
v 0.377964 -0.680850 0.565664
v 0.382683 -1.000000 0.923880
v 0.260346 -0.680850 0.628532
v 0.195090 -1.000000 0.980785
v 0.132723 -0.680850 0.667246
v -0.000000 -1.000000 1.000000
v -0.000000 -0.680850 0.680318
v -0.195091 -1.000000 0.980785
v -0.132724 -0.680850 0.667246
v -0.382684 -1.000000 0.923879
v -0.260347 -0.680850 0.628532
v -0.555571 -1.000000 0.831469
v -0.377965 -0.680850 0.565663
v -0.707107 -1.000000 0.707106
v -0.481058 -0.680850 0.481057
v -0.831470 -1.000000 0.555570
v -0.565664 -0.680850 0.377964
v -0.923880 -1.000000 0.382683
v -0.628532 -0.680850 0.260346
v -0.980785 -1.000000 0.195089
v -0.667246 -0.680850 0.132723
v -1.000000 -1.000000 -0.000001
v -0.680318 -0.680850 -0.000001
v -0.980785 -1.000000 -0.195091
v -0.667246 -0.680850 -0.132724
v -0.923879 -1.000000 -0.382684
v -0.628531 -0.680850 -0.260347
v -0.831469 -1.000000 -0.555571
v -0.565663 -0.680850 -0.377965
v -0.707106 -1.000000 -0.707108
v -0.481057 -0.680850 -0.481058
v -0.555569 -1.000000 -0.831470
v -0.377964 -0.680850 -0.565664
v -0.382682 -1.000000 -0.923880
v -0.260345 -0.680850 -0.628532
v -0.195089 -1.000000 -0.980786
v -0.132722 -0.680850 -0.667246
v 0.098020 -1.001899 -0.995216
v 0.066422 -0.679444 -0.674394
v 0.000000 -0.840513 -0.906052
v 0.176762 -0.840513 -0.888642
v 0.290294 -1.001899 -0.956970
v 0.196713 -0.679444 -0.648477
v 0.346731 -0.840513 -0.837083
v 0.471412 -1.001899 -0.881949
v 0.319445 -0.679444 -0.597640
v 0.503375 -0.840513 -0.753354
v 0.634413 -1.001899 -0.773035
v 0.429901 -0.679444 -0.523836
v 0.640675 -0.840513 -0.640675
v 0.773035 -1.001899 -0.634413
v 0.523836 -0.679444 -0.429901
v 0.753354 -0.840513 -0.503375
v 0.881949 -1.001899 -0.471411
v 0.597640 -0.679444 -0.319445
v 0.837083 -0.840513 -0.346731
v 0.956970 -1.001899 -0.290294
v 0.648477 -0.679444 -0.196713
v 0.888642 -0.840513 -0.176762
v 0.995216 -1.001899 -0.098020
v 0.674394 -0.679444 -0.066422
v 0.906052 -0.840513 -0.000000
v 0.995216 -1.001899 0.098020
v 0.674394 -0.679444 0.066422
v 0.888642 -0.840513 0.176762
v 0.956970 -1.001899 0.290294
v 0.648477 -0.679444 0.196713
v 0.837083 -0.840513 0.346731
v 0.881949 -1.001899 0.471411
v 0.597640 -0.679444 0.319445
v 0.753354 -0.840513 0.503375
v 0.773035 -1.001899 0.634413
v 0.523836 -0.679444 0.429901
v 0.640675 -0.840513 0.640675
v 0.634413 -1.001899 0.773035
v 0.429901 -0.679444 0.523836
v 0.503375 -0.840513 0.753354
v 0.471411 -1.001899 0.881949
v 0.319445 -0.679444 0.597640
v 0.346731 -0.840513 0.837083
v 0.290294 -1.001899 0.956970
v 0.196713 -0.679444 0.648477
v 0.176762 -0.840513 0.888642
v 0.098020 -1.001899 0.995216
v 0.066422 -0.679444 0.674394
v -0.000000 -0.840513 0.906052
v -0.098021 -1.001899 0.995216
v -0.066422 -0.679444 0.674394
v -0.176762 -0.840513 0.888642
v -0.290294 -1.001899 0.956970
v -0.196714 -0.679444 0.648477
v -0.346731 -0.840513 0.837082
v -0.471412 -1.001899 0.881949
v -0.319445 -0.679444 0.597640
v -0.503376 -0.840513 0.753354
v -0.634414 -1.001899 0.773034
v -0.429901 -0.679444 0.523835
v -0.640676 -0.840513 0.640675
v -0.773035 -1.001899 0.634413
v -0.523836 -0.679444 0.429900
v -0.753355 -0.840513 0.503375
v -0.881949 -1.001899 0.471411
v -0.597640 -0.679444 0.319445
v -0.837083 -0.840513 0.346730
v -0.956971 -1.001899 0.290293
v -0.648477 -0.679444 0.196713
v -0.888642 -0.840513 0.176761
v -0.995216 -1.001899 0.098019
v -0.674394 -0.679444 0.066421
v -0.906052 -0.840513 -0.000001
v -0.995216 -1.001899 -0.098021
v -0.674394 -0.679444 -0.066423
v -0.888642 -0.840513 -0.176763
v -0.956970 -1.001899 -0.290295
v -0.648477 -0.679444 -0.196714
v -0.837082 -0.840513 -0.346732
v -0.881948 -1.001899 -0.471413
v -0.597640 -0.679444 -0.319446
v -0.753354 -0.840513 -0.503376
v -0.773034 -1.001899 -0.634414
v -0.523835 -0.679444 -0.429902
v -0.640674 -0.840513 -0.640676
v -0.634412 -1.001899 -0.773035
v -0.429900 -0.679444 -0.523836
v -0.503374 -0.840513 -0.753355
v -0.471410 -1.001899 -0.881950
v -0.319444 -0.679444 -0.597641
v -0.346730 -0.840513 -0.837083
v -0.290292 -1.001899 -0.956971
v -0.196712 -0.679444 -0.648478
v -0.176761 -0.840513 -0.888642
v -0.098019 -1.001899 -0.995216
v -0.066421 -0.679444 -0.674394
v -0.262999 -0.838716 -0.866996
v -0.088804 -0.838716 -0.901645
v -0.427088 -0.838716 -0.799028
v -0.574764 -0.838716 -0.700354
v -0.700353 -0.838716 -0.574766
v -0.799027 -0.838716 -0.427090
v -0.866995 -0.838716 -0.263001
v -0.901645 -0.838716 -0.088805
v -0.901645 -0.838716 0.088803
v -0.866996 -0.838716 0.262999
v -0.799028 -0.838716 0.427088
v -0.700354 -0.838716 0.574765
v -0.574766 -0.838716 0.700353
v -0.427090 -0.838716 0.799027
v -0.263001 -0.838716 0.866995
v -0.088805 -0.838716 0.901645
v 0.088804 -0.838716 0.901645
v 0.263000 -0.838716 0.866995
v 0.427089 -0.838716 0.799028
v 0.574765 -0.838716 0.700353
v 0.700354 -0.838716 0.574765
v 0.799028 -0.838716 0.427089
v 0.866995 -0.838716 0.263000
v 0.901645 -0.838716 0.088804
v 0.901645 -0.838716 -0.088804
v 0.866995 -0.838716 -0.263000
v 0.799028 -0.838716 -0.427089
v 0.700354 -0.838716 -0.574765
v 0.574765 -0.838716 -0.700354
v 0.427089 -0.838716 -0.799028
v 0.263000 -0.838716 -0.866995
v 0.088804 -0.838716 -0.901645
vn 0.072300 0.674800 -0.734400
vn 0.029700 0.953000 -0.301500
vn 0.062100 0.947900 -0.312300
vn 0.144500 0.671600 -0.726700
vn 0.214200 0.674800 -0.706200
vn 0.087900 0.953000 -0.289900
vn 0.121800 0.947900 -0.294100
vn 0.283500 0.671600 -0.684500
vn 0.347900 0.674800 -0.650800
vn 0.142800 0.953000 -0.267200
vn 0.176900 0.947900 -0.264700
vn 0.411600 0.671600 -0.616100
vn 0.468200 0.674800 -0.570500
vn 0.192200 0.953000 -0.234200
vn 0.225100 0.947900 -0.225100
vn 0.523900 0.671600 -0.523900
vn 0.570500 0.674800 -0.468200
vn 0.234200 0.953000 -0.192200
vn 0.264700 0.947900 -0.176900
vn 0.616000 0.671600 -0.411600
vn 0.650800 0.674800 -0.347900
vn 0.267200 0.953000 -0.142800
vn 0.294100 0.947900 -0.121800
vn 0.684500 0.671600 -0.283500
vn 0.706200 0.674800 -0.214200
vn 0.289900 0.953000 -0.087900
vn 0.312300 0.947900 -0.062100
vn 0.726700 0.671600 -0.144500
vn 0.734400 0.674800 -0.072300
vn 0.301500 0.953000 -0.029700
vn 0.318400 0.947900 0.000000
vn 0.740900 0.671600 0.000000
vn 0.734400 0.674800 0.072300
vn 0.301500 0.953000 0.029700
vn 0.312300 0.947900 0.062100
vn 0.726700 0.671600 0.144500
vn 0.706200 0.674800 0.214200
vn 0.289900 0.953000 0.087900
vn 0.294100 0.947900 0.121800
vn 0.684500 0.671600 0.283500
vn 0.650800 0.674800 0.347900
vn 0.267200 0.953000 0.142800
vn 0.264700 0.947900 0.176900
vn 0.616100 0.671600 0.411600
vn 0.570500 0.674800 0.468200
vn 0.234200 0.953000 0.192200
vn 0.225100 0.947900 0.225100
vn 0.523900 0.671600 0.523900
vn 0.468200 0.674800 0.570500
vn 0.192200 0.953000 0.234200
vn 0.176900 0.947900 0.264700
vn 0.411600 0.671600 0.616000
vn 0.347900 0.674800 0.650800
vn 0.142800 0.953000 0.267200
vn 0.121800 0.947900 0.294100
vn 0.283500 0.671600 0.684500
vn 0.214200 0.674800 0.706200
vn 0.087900 0.953000 0.289900
vn 0.062100 0.947900 0.312300
vn 0.144500 0.671600 0.726700
vn 0.072300 0.674800 0.734400
vn 0.029700 0.953000 0.301500
vn 0.000000 0.947900 0.318400
vn 0.000000 0.671600 0.740900
vn -0.072300 0.674800 0.734400
vn -0.029700 0.953000 0.301500
vn -0.062100 0.947900 0.312300
vn -0.144500 0.671600 0.726700
vn -0.214200 0.674800 0.706200
vn -0.087900 0.953000 0.289900
vn -0.121800 0.947900 0.294100
vn -0.283500 0.671600 0.684500
vn -0.347900 0.674800 0.650800
vn -0.142800 0.953000 0.267200
vn -0.176900 0.947900 0.264700
vn -0.411600 0.671600 0.616000
vn -0.468200 0.674800 0.570500
vn -0.192200 0.953000 0.234200
vn -0.225100 0.947900 0.225100
vn -0.523900 0.671600 0.523900
vn -0.570500 0.674800 0.468200
vn -0.234200 0.953000 0.192200
vn -0.264700 0.947900 0.176900
vn -0.616100 0.671600 0.411600
vn -0.650800 0.674800 0.347900
vn -0.267200 0.953000 0.142800
vn -0.294100 0.947900 0.121800
vn -0.684500 0.671600 0.283500
vn -0.706200 0.674800 0.214200
vn -0.289900 0.953000 0.087900
vn -0.312300 0.947900 0.062100
vn -0.726700 0.671600 0.144500
vn -0.734400 0.674800 0.072300
vn -0.301500 0.953000 0.029700
vn -0.318400 0.947900 0.000000
vn -0.740900 0.671600 0.000000
vn -0.734400 0.674800 -0.072300
vn -0.301500 0.953000 -0.029700
vn -0.312300 0.947900 -0.062100
vn -0.726700 0.671600 -0.144500
vn -0.706200 0.674800 -0.214200
vn -0.289900 0.953000 -0.087900
vn -0.294100 0.947900 -0.121800
vn -0.684500 0.671600 -0.283500
vn -0.650800 0.674800 -0.347900
vn -0.267200 0.953000 -0.142800
vn -0.264700 0.947900 -0.176900
vn -0.616000 0.671600 -0.411600
vn -0.570500 0.674800 -0.468200
vn -0.234200 0.953000 -0.192200
vn -0.225100 0.947900 -0.225100
vn -0.523900 0.671600 -0.523900
vn -0.468200 0.674800 -0.570500
vn -0.192200 0.953000 -0.234200
vn -0.176900 0.947900 -0.264700
vn -0.411600 0.671600 -0.616100
vn -0.347900 0.674800 -0.650800
vn -0.142800 0.953000 -0.267200
vn -0.121800 0.947900 -0.294100
vn -0.283500 0.671600 -0.684500
vn 0.000000 0.947900 -0.318400
vn -0.029700 0.953000 -0.301500
vn -0.062100 0.947900 -0.312300
vn -0.087900 0.953000 -0.289900
vn -0.072300 0.674800 -0.734400
vn 0.000000 0.671600 -0.740900
vn -0.214200 0.674800 -0.706200
vn -0.144500 0.671600 -0.726700
vn 0.000000 -0.477100 -0.878800
vn 0.085200 -0.493200 -0.865700
vn 0.171400 -0.477100 -0.861900
vn 0.252500 -0.493200 -0.832400
vn 0.336300 -0.477100 -0.811900
vn 0.410000 -0.493200 -0.767200
vn 0.488200 -0.477100 -0.730700
vn 0.551800 -0.493200 -0.672400
vn 0.621400 -0.477100 -0.621400
vn 0.672400 -0.493200 -0.551800
vn 0.730700 -0.477100 -0.488200
vn 0.767200 -0.493200 -0.410000
vn 0.811900 -0.477100 -0.336300
vn 0.832400 -0.493200 -0.252500
vn 0.861900 -0.477100 -0.171400
vn 0.865700 -0.493200 -0.085200
vn 0.878800 -0.477100 0.000000
vn 0.865700 -0.493200 0.085200
vn 0.861900 -0.477100 0.171400
vn 0.832400 -0.493200 0.252500
vn 0.811900 -0.477100 0.336300
vn 0.767200 -0.493200 0.410000
vn 0.730700 -0.477100 0.488200
vn 0.672400 -0.493200 0.551800
vn 0.621400 -0.477100 0.621400
vn 0.551800 -0.493200 0.672400
vn 0.488200 -0.477100 0.730700
vn 0.410000 -0.493200 0.767200
vn 0.336300 -0.477100 0.811900
vn 0.252500 -0.493200 0.832400
vn 0.171400 -0.477100 0.861900
vn 0.085200 -0.493200 0.865700
vn 0.000000 -0.477100 0.878800
vn -0.085200 -0.493200 0.865700
vn -0.171400 -0.477100 0.861900
vn -0.252500 -0.493200 0.832400
vn -0.336300 -0.477100 0.811900
vn -0.410000 -0.493200 0.767200
vn -0.488200 -0.477100 0.730700
vn -0.551800 -0.493200 0.672400
vn -0.621400 -0.477100 0.621400
vn -0.672400 -0.493200 0.551800
vn -0.730700 -0.477100 0.488200
vn -0.767200 -0.493200 0.410000
vn -0.811900 -0.477100 0.336300
vn -0.832400 -0.493200 0.252500
vn -0.861900 -0.477100 0.171400
vn -0.865700 -0.493200 0.085200
vn -0.878800 -0.477100 0.000000
vn -0.865700 -0.493200 -0.085200
vn -0.861900 -0.477100 -0.171500
vn -0.832400 -0.493200 -0.252500
vn -0.811900 -0.477100 -0.336300
vn -0.767200 -0.493200 -0.410000
vn -0.730700 -0.477100 -0.488200
vn -0.672400 -0.493200 -0.551800
vn -0.621400 -0.477100 -0.621400
vn -0.551800 -0.493200 -0.672400
vn -0.488200 -0.477100 -0.730700
vn -0.410000 -0.493200 -0.767200
vn -0.336300 -0.477100 -0.811900
vn -0.252500 -0.493200 -0.832400
vn -0.171400 -0.477100 -0.861900
vn -0.085200 -0.493200 -0.865700
usemtl None
s 1
f 192//1 66//2 4//3 68//4
f 191//5 70//6 6//7 71//8
f 190//9 73//10 8//11 74//12
f 189//13 76//14 10//15 77//16
f 188//17 79//18 12//19 80//20
f 187//21 82//22 14//23 83//24
f 186//25 85//26 16//27 86//28
f 185//29 88//30 18//31 89//32
f 184//33 91//34 20//35 92//36
f 183//37 94//38 22//39 95//40
f 182//41 97//42 24//43 98//44
f 181//45 100//46 26//47 101//48
f 180//49 103//50 28//51 104//52
f 179//53 106//54 30//55 107//56
f 178//57 109//58 32//59 110//60
f 177//61 112//62 34//63 113//64
f 176//65 115//66 36//67 116//68
f 175//69 118//70 38//71 119//72
f 174//73 121//74 40//75 122//76
f 173//77 124//78 42//79 125//80
f 172//81 127//82 44//83 128//84
f 171//85 130//86 46//87 131//88
f 170//89 133//90 48//91 134//92
f 169//93 136//94 50//95 137//96
f 168//97 139//98 52//99 140//100
f 167//101 142//102 54//103 143//104
f 166//105 145//106 56//107 146//108
f 165//109 148//110 58//111 149//112
f 164//113 151//114 60//115 152//116
f 163//117 154//118 62//119 155//120
f 4//3 66//2 2//121 160//122 64//123 157//124 62//119 154//118 60//115 151//114 58//111 148//110 56//107 145//106 54//103 142//102 52//99 139//98 50//95 136//94 48//91 133//90 46//87 130//86 44//83 127//82 42//79 124//78 40//75 121//74 38//71 118//70 36//67 115//66 34//63 112//62 32//59 109//58 30//55 106//54 28//51 103//50 26//47 100//46 24//43 97//42 22//39 94//38 20//35 91//34 18//31 88//30 16//27 85//26 14//23 82//22 12//19 79//18 10//15 76//14 8//11 73//10 6//7 70//6
f 162//125 160//122 2//121 67//126
f 161//127 157//124 64//123 158//128
f 1//129 65//130 3//131 69//132 5//133 72//134 7//135 75//136 9//137 78//138 11//139 81//140 13//141 84//142 15//143 87//144 17//145 90//146 19//147 93//148 21//149 96//150 23//151 99//152 25//153 102//154 27//155 105//156 29//157 108//158 31//159 111//160 33//161 114//162 35//163 117//164 37//165 120//166 39//167 123//168 41//169 126//170 43//171 129//172 45//173 132//174 47//175 135//176 49//177 138//178 51//179 141//180 53//181 144//182 55//183 147//184 57//185 150//186 59//187 153//188 61//189 156//190 63//191 159//192
f 156//190 161//127 158//128 63//191
f 61//189 155//120 161//127 156//190
f 155//120 62//119 157//124 161//127
f 159//192 162//125 67//126 1//129
f 63//191 158//128 162//125 159//192
f 158//128 64//123 160//122 162//125
f 153//188 163//117 155//120 61//189
f 59//187 152//116 163//117 153//188
f 152//116 60//115 154//118 163//117
f 150//186 164//113 152//116 59//187
f 57//185 149//112 164//113 150//186
f 149//112 58//111 151//114 164//113
f 147//184 165//109 149//112 57//185
f 55//183 146//108 165//109 147//184
f 146//108 56//107 148//110 165//109
f 144//182 166//105 146//108 55//183
f 53//181 143//104 166//105 144//182
f 143//104 54//103 145//106 166//105
f 141//180 167//101 143//104 53//181
f 51//179 140//100 167//101 141//180
f 140//100 52//99 142//102 167//101
f 138//178 168//97 140//100 51//179
f 49//177 137//96 168//97 138//178
f 137//96 50//95 139//98 168//97
f 135//176 169//93 137//96 49//177
f 47//175 134//92 169//93 135//176
f 134//92 48//91 136//94 169//93
f 132//174 170//89 134//92 47//175
f 45//173 131//88 170//89 132//174
f 131//88 46//87 133//90 170//89
f 129//172 171//85 131//88 45//173
f 43//171 128//84 171//85 129//172
f 128//84 44//83 130//86 171//85
f 126//170 172//81 128//84 43//171
f 41//169 125//80 172//81 126//170
f 125//80 42//79 127//82 172//81
f 123//168 173//77 125//80 41//169
f 39//167 122//76 173//77 123//168
f 122//76 40//75 124//78 173//77
f 120//166 174//73 122//76 39//167
f 37//165 119//72 174//73 120//166
f 119//72 38//71 121//74 174//73
f 117//164 175//69 119//72 37//165
f 35//163 116//68 175//69 117//164
f 116//68 36//67 118//70 175//69
f 114//162 176//65 116//68 35//163
f 33//161 113//64 176//65 114//162
f 113//64 34//63 115//66 176//65
f 111//160 177//61 113//64 33//161
f 31//159 110//60 177//61 111//160
f 110//60 32//59 112//62 177//61
f 108//158 178//57 110//60 31//159
f 29//157 107//56 178//57 108//158
f 107//56 30//55 109//58 178//57
f 105//156 179//53 107//56 29//157
f 27//155 104//52 179//53 105//156
f 104//52 28//51 106//54 179//53
f 102//154 180//49 104//52 27//155
f 25//153 101//48 180//49 102//154
f 101//48 26//47 103//50 180//49
f 99//152 181//45 101//48 25//153
f 23//151 98//44 181//45 99//152
f 98//44 24//43 100//46 181//45
f 96//150 182//41 98//44 23//151
f 21//149 95//40 182//41 96//150
f 95//40 22//39 97//42 182//41
f 93//148 183//37 95//40 21//149
f 19//147 92//36 183//37 93//148
f 92//36 20//35 94//38 183//37
f 90//146 184//33 92//36 19//147
f 17//145 89//32 184//33 90//146
f 89//32 18//31 91//34 184//33
f 87//144 185//29 89//32 17//145
f 15//143 86//28 185//29 87//144
f 86//28 16//27 88//30 185//29
f 84//142 186//25 86//28 15//143
f 13//141 83//24 186//25 84//142
f 83//24 14//23 85//26 186//25
f 81//140 187//21 83//24 13//141
f 11//139 80//20 187//21 81//140
f 80//20 12//19 82//22 187//21
f 78//138 188//17 80//20 11//139
f 9//137 77//16 188//17 78//138
f 77//16 10//15 79//18 188//17
f 75//136 189//13 77//16 9//137
f 7//135 74//12 189//13 75//136
f 74//12 8//11 76//14 189//13
f 72//134 190//9 74//12 7//135
f 5//133 71//8 190//9 72//134
f 71//8 6//7 73//10 190//9
f 69//132 191//5 71//8 5//133
f 3//131 68//4 191//5 69//132
f 68//4 4//3 70//6 191//5
f 65//130 192//1 68//4 3//131
f 1//129 67//126 192//1 65//130
f 67//126 2//121 66//2 192//1
