# Blender v2.74 (sub 0) OBJ File: ''
# www.blender.org
mtllib frybox.mtl
o Cube_Cube.001
v -1.000000 2.022636 -1.000000
v -1.000000 -0.055859 -1.000000
v -1.000000 -0.055859 1.000000
v -1.000000 2.022636 1.000000
v 0.204669 2.022636 -1.000000
v 0.204669 -0.055859 -1.000000
v 0.204669 -0.055859 1.000000
v -1.194667 2.217303 0.000000
v -0.397666 2.139890 -1.117254
v 0.204669 2.022636 1.000000
v -0.397666 2.139890 1.117254
v -0.516104 2.151394 0.951224
v -0.562970 2.142268 0.942112
v -0.895089 2.061977 0.942159
v -0.941581 2.050737 0.942165
v -0.941601 2.067994 0.870754
v -0.941688 2.142330 0.563138
v -0.997490 2.198151 0.276406
v -0.942008 2.063784 -0.903722
v -1.056865 2.257541 0.000000
v -0.941953 2.142763 -0.589768
v -0.397666 2.178841 -0.976934
v -0.942015 2.053424 -0.941038
v -0.581905 2.142971 -0.941087
v 0.399336 2.217303 0.000000
v -0.278083 2.151505 -0.949621
v -0.234627 2.143044 -0.941167
v 0.139787 2.052511 -0.941287
v 0.192307 2.039812 -0.941304
v 0.192321 2.059302 -0.860659
v 0.192383 2.142975 -0.514445
v 0.252622 2.203052 -0.205666
v -0.397666 2.178471 0.978269
v 0.296892 2.247216 0.000000
v 0.169678 2.047464 0.941908
v -0.211953 2.142343 0.942032
v 0.192625 2.142580 0.537085
v 0.192740 2.040732 0.941901
v -0.941186 0.185073 0.941465
v -0.941619 0.185779 -0.941739
v 0.193132 0.185313 0.941205
v 0.192700 0.186019 -0.942000
vn 0.000000 -0.027400 -0.999600
vn 0.000000 -1.000000 0.000000
vn -0.999000 -0.044700 0.000000
vn 0.000000 -0.027400 0.999600
vn 0.999000 -0.044700 0.000000
vn -0.228700 0.946200 0.228700
vn -0.272500 0.933100 -0.234700
vn -0.233000 0.937000 -0.260100
vn 0.228700 0.946200 -0.228700
vn -0.270800 0.927600 0.257500
vn 0.270800 0.927500 -0.257500
vn 0.233000 0.937000 0.260100
vn 0.272500 0.933100 0.234700
vn 1.000000 0.000200 -0.000200
vn -0.000200 1.000000 0.000400
vn -0.000200 0.000400 -1.000000
vn 0.000200 -0.000400 1.000000
vn 0.707000 0.707300 0.000100
vn -1.000000 -0.000200 0.000200
vn 0.000000 0.706800 0.707400
vn -0.000300 0.707400 -0.706800
vn -0.707300 0.707000 0.000400
usemtl None
s off
f 9//1 5//1 6//1 2//1 1//1
f 3//2 2//2 6//2 7//2
f 8//3 1//3 2//3 3//3 4//3
f 3//4 7//4 10//4 11//4 4//4
f 7//5 6//5 5//5 25//5 10//5
f 11//6 12//6 13//6 14//6 15//6 16//6 17//6 18//6 8//6 4//6
f 19//7 1//7 8//7 20//7 21//7
f 22//8 9//8 1//8 19//8 23//8 24//8
f 25//9 5//9 9//9 26//9 27//9 28//9 29//9 30//9 31//9 32//9
f 11//10 33//10 12//10
f 20//10 8//10 18//10
f 26//11 9//11 22//11
f 25//11 32//11 34//11
f 10//12 35//12 36//12 33//12 11//12
f 10//13 25//13 34//13 37//13 38//13 35//13
f 16//14 15//14 39//14 40//14
f 23//14 19//14 21//14 17//14 16//14 40//14
f 39//15 41//15 42//15 40//15
f 15//16 14//16 41//16 39//16
f 28//17 27//17 24//17 23//17 40//17
f 21//18 20//18 18//18 17//18
f 29//17 28//17 40//17 42//17
f 30//19 29//19 42//19 41//19
f 14//16 13//16 36//16 35//16 38//16 41//16
f 27//20 26//20 22//20 24//20
f 38//19 37//19 31//19 30//19 41//19
f 13//21 12//21 33//21 36//21
f 37//22 34//22 32//22 31//22
