# Blender v2.79 (sub 0) OBJ File: ''
# www.blender.org
mtllib Pillar1.mtl
o Cube_Cube.003
v 0.295596 4.333986 0.821231
v 2.136353 -0.971615 1.709531
v 2.200538 4.012349 0.455418
v 0.033074 3.519131 1.690348
v 1.946272 0.586235 -0.534621
v 2.275820 2.606534 -0.483280
v 1.683099 4.229204 1.025606
v 2.066732 1.575850 1.686522
v 2.296598 2.599143 1.366653
v 0.811490 -2.769315 1.691257
v 2.268285 -1.395861 1.526199
v 2.226416 -1.182401 -0.292244
v 1.827032 -1.376282 -0.546526
v -0.086731 0.163814 0.795721
v 0.639756 4.000200 -0.511011
v 0.058455 -1.826730 -0.564042
v 1.833032 3.547906 1.653865
v -0.087297 -2.755511 0.610492
v 0.306682 -0.985777 1.732909
v -0.047379 1.931366 1.690065
v 0.936484 4.505495 -0.360538
v 0.564785 3.751213 1.711401
v -0.100753 -2.344619 -0.030708
v 2.128459 3.514955 -0.658600
v 0.081077 -0.478553 1.531884
v 1.844755 -2.138552 -0.188996
v 2.299225 0.547753 0.009530
v 1.853840 -2.551028 0.874448
v 0.326658 -2.829165 -0.130018
v -0.028751 2.556625 -0.279495
v 0.078177 0.698107 -0.263281
v 0.685842 1.426229 -0.636638
vn 0.1425 0.6878 0.7118
vn 0.9999 0.0087 -0.0112
vn 0.3592 -0.2738 0.8922
vn -0.8791 0.3564 -0.3164
vn 0.5361 0.7573 -0.3728
vn 0.8292 0.0164 0.5587
vn -0.9816 -0.0581 -0.1821
vn -0.0833 0.0471 -0.9954
vn 0.0505 -0.0454 -0.9977
vn 0.5560 -0.0696 -0.8282
vn 0.7692 0.0268 0.6385
vn -0.0404 0.0019 0.9992
vn 0.1910 -0.9814 -0.0186
vn 0.7099 0.5555 0.4330
vn -0.0803 -0.9953 0.0541
vn -0.6459 -0.4422 -0.6222
vn 0.3789 -0.8617 -0.3375
vn 0.5465 -0.0281 -0.8370
vn 0.9496 -0.3080 -0.0580
vn 0.8288 -0.1213 -0.5462
vn 0.6149 -0.3231 -0.7194
vn -0.6043 0.0989 -0.7906
vn -0.3985 0.0376 -0.9164
vn -0.9998 -0.0011 0.0203
vn 0.0164 -0.0255 -0.9995
vn 0.9989 -0.0373 -0.0274
vn -0.7654 0.5493 -0.3353
vn 0.3720 0.9281 -0.0154
vn -0.9994 0.0314 0.0160
vn -0.9972 0.0505 -0.0560
vn -0.8291 -0.1560 0.5369
vn 0.8696 0.3080 0.3860
vn -0.0017 0.2863 -0.9581
vn -0.9706 0.2269 -0.0804
vn 0.9999 -0.0066 0.0119
vn -0.7603 -0.0828 0.6443
vn -0.0576 0.0077 0.9983
vn -0.3438 0.7346 0.5849
vn 0.0493 0.9843 0.1696
vn 0.1038 -0.3717 -0.9225
vn -0.7362 -0.5768 -0.3542
vn 0.1547 -0.4166 -0.8958
vn 0.0129 -0.0197 0.9997
vn -0.7502 -0.2269 0.6210
vn 0.6506 0.0896 0.7541
vn 0.0281 0.0080 0.9996
vn 0.8394 0.0589 -0.5403
vn 0.9116 -0.3806 -0.1554
vn 0.0814 0.0011 -0.9967
vn -0.4916 -0.0359 -0.8701
vn -0.9904 0.0483 -0.1298
vn -0.9836 -0.0635 0.1688
vn -0.9773 -0.0132 0.2113
vn -0.9670 0.0376 -0.2521
vn 0.9981 0.0608 -0.0110
vn 0.9830 0.1355 -0.1241
vn 0.0127 0.0094 0.9999
vn -0.0183 0.8340 0.5515
vn 0.5841 -0.5476 0.5991
usemtl None
s off
f 17//1 7//1 22//1
f 9//2 27//2 6//2
f 10//3 11//3 2//3
f 1//4 15//4 30//4
f 24//5 21//5 3//5
f 9//6 2//6 11//6
f 30//7 31//7 14//7
f 15//8 24//8 32//8
f 24//9 5//9 32//9
f 5//10 24//10 6//10
f 2//11 9//11 8//11
f 4//12 20//12 22//12
f 10//13 29//13 28//13
f 3//14 7//14 17//14
f 18//15 29//15 10//15
f 16//16 29//16 23//16
f 29//17 26//17 28//17
f 13//18 5//18 12//18
f 12//19 11//19 28//19
f 5//20 6//20 27//20
f 13//21 12//21 26//21
f 16//22 31//22 32//22
f 32//23 30//23 15//23
f 18//24 14//24 23//24
f 32//25 13//25 16//25
f 11//26 12//26 27//26
f 21//27 15//27 1//27
f 7//28 3//28 21//28
f 30//29 14//29 4//29
f 4//30 14//30 20//30
f 19//31 25//31 18//31
f 17//32 9//32 3//32
f 21//33 24//33 15//33
f 1//34 30//34 4//34
f 9//35 11//35 27//35
f 25//36 19//36 20//36
f 22//37 20//37 19//37
f 1//38 4//38 22//38
f 21//39 1//39 7//39
f 16//40 13//40 29//40
f 23//41 29//41 18//41
f 26//42 29//42 13//42
f 19//43 10//43 2//43
f 18//44 10//44 19//44
f 8//45 9//45 17//45
f 19//46 8//46 17//46 22//46
f 12//47 5//47 27//47
f 12//48 28//48 26//48
f 32//49 5//49 13//49
f 30//50 32//50 31//50
f 23//51 14//51 31//51
f 25//52 20//52 14//52
f 14//53 18//53 25//53
f 31//54 16//54 23//54
f 9//55 6//55 3//55
f 3//56 6//56 24//56
f 8//57 19//57 2//57
f 7//58 1//58 22//58
f 11//59 10//59 28//59
