# Blender v2.74 (sub 0) OBJ File: ''
# www.blender.org
mtllib badge.mtl
o Cube_Cube.001
v -0.371901 0.473155 -0.473155
v -0.371901 -0.473155 -0.473155
v -0.371901 0.473155 0.473155
v -0.371901 -0.473155 0.473155
v -0.473155 0.473155 -0.473155
v -0.473155 -0.473155 -0.473155
v -0.473155 0.473155 0.473155
v -0.572216 -0.473155 0.473155
v -0.279794 0.000000 -0.565263
v -0.260124 -0.565263 0.000000
v -0.279794 0.000000 0.565263
v -0.279794 0.565263 0.000000
v -0.493511 -0.496828 0.496828
v -0.565263 0.000000 0.565263
v -0.447026 0.496828 0.496828
v -0.565263 -0.565263 0.000000
v -0.565263 0.000000 -0.565263
v -0.565263 0.565263 0.000000
v -0.375316 -0.496828 -0.496828
v -0.447026 0.496828 -0.496828
v -0.493511 -0.776603 0.000000
v -0.351545 0.627668 0.000000
v -0.382365 0.000000 -0.641902
v -0.568621 0.000000 0.000000
v -0.382365 0.000000 0.641902
v -0.127558 0.000000 0.000000
v -0.297640 -0.250085 -0.545418
v -0.298438 -0.545414 0.249296
v -0.297640 0.250085 0.545418
v -0.205274 0.327020 -0.249296
v -0.559393 -0.492733 0.492566
v -0.547887 0.248351 0.542767
v -0.428593 0.492366 0.492215
v -0.547052 -0.542777 -0.247575
v -0.547887 0.248351 -0.542767
v -0.547052 0.324383 0.247575
v -0.384939 -0.492366 -0.492215
v -0.436870 0.492733 -0.492566
v -0.297640 0.250085 -0.545418
v -0.298438 -0.545414 -0.249296
v -0.297640 -0.250085 0.545418
v -0.298438 0.327020 0.249296
v -0.428593 -0.492366 0.492215
v -0.597402 -0.248351 0.542767
v -0.436870 0.492733 0.492566
v -0.547052 -0.542777 0.247575
v -0.547887 -0.248351 -0.542767
v -0.547052 0.324383 -0.247575
v -0.417427 -0.492733 -0.492566
v -0.428593 0.492366 -0.492215
v -0.471920 0.617139 0.000000
v -0.275929 0.616760 0.000000
v -0.493511 0.389461 -0.274358
v -0.493511 0.389461 0.274358
v -0.351545 0.274871 -0.616442
v -0.390413 -0.274871 -0.616442
v -0.471491 -0.000000 -0.625560
v -0.375559 -0.000000 -0.625126
v -0.607916 0.317265 0.000000
v -0.607916 -0.317265 0.000000
v -0.607646 0.000000 0.315779
v -0.607646 0.000000 -0.315779
v -0.390413 0.274871 0.616442
v -0.493511 -0.274871 0.616442
v -0.375559 -0.000000 0.625126
v -0.471491 0.000000 0.625560
v -0.143230 0.312901 0.000000
v -0.143230 -0.312901 0.000000
v -0.163333 0.000000 -0.311403
v -0.163333 -0.000000 0.311403
v -0.185575 -0.296775 0.298917
v -0.185575 -0.296775 -0.298917
v -0.185575 0.296775 -0.298917
v -0.606695 -0.268336 0.599491
v -0.383140 -0.268770 0.599946
v -0.383140 0.268770 0.599946
v -0.617665 -0.296213 -0.296685
v -0.617665 -0.296213 0.296685
v -0.617665 0.296213 0.296685
v -0.383140 -0.268770 -0.599946
v -0.464729 -0.268336 -0.599491
v -0.464729 0.268336 -0.599491
v -0.387281 0.375657 0.269209
v -0.387281 0.375657 -0.269209
v -0.501456 0.375099 -0.268707
v -0.501456 0.375099 0.268707
v -0.290105 0.268770 -0.599946
v -0.617665 0.296213 -0.296685
v -0.464729 0.268336 0.599491
v -0.185575 0.296775 0.298917
vn -0.754400 -0.635800 -0.163200
vn 0.583000 -0.409000 -0.702000
vn 0.829800 -0.541000 0.137000
vn -0.815500 -0.503500 0.285500
vn 0.528000 -0.791900 0.306700
vn -0.411900 0.819000 -0.399500
vn -0.896800 0.239800 0.371700
vn 0.717200 0.595400 0.362100
vn 0.861200 0.504800 -0.059700
vn 0.543300 -0.619000 0.567100
vn -0.116900 -0.717200 0.686900
vn -0.095100 -0.888900 0.448200
vn 0.224400 -0.413800 0.882300
vn 0.202300 0.092000 0.975000
vn -0.538300 0.099000 0.836900
vn 0.891500 -0.402600 -0.207600
vn 0.993200 -0.082400 0.081900
vn 0.974300 0.030200 0.223400
vn -0.669400 -0.453600 -0.588300
vn -0.277300 0.149000 -0.949200
vn 0.778800 -0.196200 -0.595800
vn -0.846500 -0.500100 0.182400
vn -0.989600 0.064200 0.128400
vn -0.902600 0.091000 -0.420700
vn -0.989600 0.064200 -0.128400
vn -0.891300 0.424500 -0.159000
vn -0.799400 0.426500 -0.423200
vn -0.902600 0.091000 0.420700
vn -0.799400 0.426500 0.423200
vn -0.891300 0.424500 0.159000
vn -0.797500 -0.474900 0.372100
vn -0.902600 -0.091000 0.420700
vn -0.989600 -0.064200 0.128400
vn 0.163000 0.019700 -0.986400
vn 0.131300 0.459700 -0.878300
vn 0.988600 0.147400 0.030800
vn -0.538300 0.099000 -0.836900
vn -0.502600 0.435600 -0.746800
vn -0.133400 0.461200 -0.877200
vn -0.502600 -0.435600 -0.746800
vn -0.538300 -0.099000 -0.836900
vn -0.923200 -0.061900 -0.379300
vn 0.993200 -0.082400 -0.081900
vn 0.973500 0.226300 0.033200
vn 0.865700 0.355700 0.352300
vn 0.990600 -0.067600 -0.118700
vn 0.977000 0.209100 -0.041900
vn 0.973500 0.226300 -0.033200
vn 0.829800 -0.541000 -0.137000
vn 0.974300 -0.030200 -0.223400
vn 0.993200 0.082400 0.081900
vn -0.923200 0.061900 0.379300
vn -0.994700 -0.068700 -0.076400
vn -0.642900 0.377900 0.666200
vn 0.556800 0.103500 0.824200
vn 0.525100 0.431000 0.733800
vn 0.199600 0.465500 0.862200
vn 0.583000 -0.409000 0.702000
vn 0.556800 -0.103500 0.824200
vn 0.164800 -0.104400 0.980800
vn -0.116900 -0.717200 -0.686900
vn -0.671200 -0.452900 -0.586900
vn -0.283900 -0.856600 0.430900
vn -0.095100 -0.888900 -0.448200
vn -0.179700 -0.882200 -0.435300
vn -0.433400 -0.646200 0.628200
vn 0.528000 -0.791900 -0.306700
vn 0.876900 0.304700 0.371800
vn 0.175600 -0.764300 0.620500
vn 0.839400 0.506100 -0.198000
vn 0.423300 0.817300 0.390900
vn -0.608700 0.754700 0.244700
vn -0.473100 0.812600 -0.340400
vn 0.543300 -0.619000 -0.567100
vn 0.175600 -0.764300 -0.620500
vn 0.876900 0.304700 -0.371800
vn -0.280700 -0.549100 0.787200
vn -0.437500 0.009800 0.899200
vn -0.787000 0.049200 0.615000
vn 0.891500 -0.402600 0.207600
vn 0.993200 0.082400 -0.081900
vn 0.974300 -0.030200 0.223400
vn 0.346800 -0.406600 -0.845200
vn 0.202300 -0.092000 -0.975000
vn 0.556800 -0.103500 -0.824200
vn -0.661400 -0.649600 -0.375000
vn -0.989600 -0.064200 -0.128400
vn -0.902600 -0.091000 -0.420700
usemtl None
s off
f 90//1 29//1 3//1 42//1
f 89//2 32//2 7//2 45//2
f 88//3 35//3 5//3 48//3
f 87//4 39//4 1//4 50//4
f 86//5 45//5 7//5 36//5
f 28//6 43//6 4//6
f 37//7 40//7 2//7
f 34//8 16//8 21//8 19//8 49//8
f 46//9 8//9 31//9
f 85//10 51//10 18//10 48//10
f 84//11 52//11 22//11 53//11
f 83//12 33//12 15//12 54//12
f 82//13 55//13 20//13 38//13
f 81//14 56//14 23//14 57//14
f 80//15 27//15 9//15 58//15
f 79//16 59//16 18//16 36//16
f 78//17 60//17 24//17 61//17
f 77//18 47//18 17//18 62//18
f 76//19 63//19 15//19 33//19
f 75//20 64//20 25//20 65//20
f 74//21 44//21 14//21 66//21
f 73//22 67//22 12//22 30//22
f 72//23 68//23 26//23 69//23
f 71//24 41//24 11//24 70//24
f 68//25 71//25 70//25 26//25
f 10//26 28//26 71//26 68//26
f 28//27 4//27 41//27 71//27
f 27//28 72//28 69//28 9//28
f 2//29 40//29 72//29 27//29
f 40//30 10//30 68//30 72//30
f 39//31 73//31 30//31 1//31
f 9//32 69//32 73//32 39//32
f 69//33 26//33 67//33 73//33
f 64//34 74//34 66//34 25//34
f 13//35 31//35 74//35 64//35
f 31//36 8//36 44//36 74//36
f 41//37 75//37 65//37 11//37
f 4//38 43//38 75//38 41//38
f 43//39 13//39 64//39 75//39
f 29//40 76//40 33//40 3//40
f 11//41 65//41 76//41 29//41
f 65//42 25//42 63//42 76//42
f 60//43 77//43 62//43 24//43
f 16//44 34//44 77//44 60//44
f 34//45 6//45 47//45 77//45
f 44//46 78//46 61//46 14//46
f 8//47 46//47 78//47 44//47
f 46//48 16//48 60//48 78//48
f 32//49 79//49 36//49 7//49
f 14//50 61//50 79//50 32//50
f 61//51 24//51 59//51 79//51
f 56//52 80//52 58//52 23//52
f 19//53 37//53 80//53 56//53
f 37//54 2//54 27//54 80//54
f 47//55 81//55 57//55 17//55
f 6//56 49//56 81//56 47//56
f 49//57 19//57 56//57 81//57
f 35//58 82//58 38//58 5//58
f 17//59 57//59 82//59 35//59
f 57//60 23//60 55//60 82//60
f 52//61 83//61 54//61 22//61
f 12//62 42//62 83//62 52//62
f 42//63 3//63 33//63 83//63
f 50//64 84//64 53//64 20//64
f 1//65 30//65 84//65 50//65
f 30//66 12//66 52//66 84//66
f 38//67 85//67 48//67 5//67
f 20//68 53//68 85//68 38//68
f 53//69 22//69 51//69 85//69
f 16//70 46//70 31//70 13//70 21//70
f 6//71 34//71 49//71
f 19//72 21//72 10//72 40//72 37//72
f 21//73 13//73 43//73 28//73 10//73
f 51//74 86//74 36//74 18//74
f 22//75 54//75 86//75 51//75
f 54//76 15//76 45//76 86//76
f 55//77 87//77 50//77 20//77
f 23//78 58//78 87//78 55//78
f 58//79 9//79 39//79 87//79
f 59//80 88//80 48//80 18//80
f 24//81 62//81 88//81 59//81
f 62//82 17//82 35//82 88//82
f 63//83 89//83 45//83 15//83
f 25//84 66//84 89//84 63//84
f 66//85 14//85 32//85 89//85
f 67//86 90//86 42//86 12//86
f 26//87 70//87 90//87 67//87
f 70//88 11//88 29//88 90//88
