# Blender v2.74 (sub 0) OBJ File: ''
# www.blender.org
mtllib CowboyHat1.mtl
o Cube
v -2.101068 -0.681387 -0.000539
v 0.006111 0.999889 0.002085
v 1.003059 -0.003145 0.001719
v 0.002403 -0.001004 1.001028
v -0.996933 0.002930 0.000397
v 0.003723 0.000789 -0.998913
v -1.479393 -0.808585 1.481203
v 0.000000 -1.294479 2.102966
v 0.000031 -1.294051 -2.103047
v 2.104834 -0.691900 0.001733
v -1.479370 -0.807856 -1.482471
v 1.484093 -0.820892 -1.479662
v 1.484077 -0.820998 1.483879
v 1.276989 -0.673865 0.000893
v 0.000954 -0.823419 -1.275460
v 0.753557 -0.001913 -0.748379
v 0.000601 -0.823871 1.275999
v 0.752563 -0.002859 0.751486
v -1.274500 -0.669614 -0.000035
v -0.747427 0.001299 0.750585
v -0.746441 0.003043 -0.749461
v 0.755337 0.746145 0.002639
v 0.006166 0.751063 -0.748150
v 0.004532 0.748717 0.751806
v -0.744638 0.753635 0.001017
v 2.381305 -0.376790 1.020466
v -1.016762 -1.276730 -2.378292
v -1.016798 -1.277749 2.377804
v -2.374495 -0.357929 -1.018372
v -1.422217 -1.110082 1.422553
v -1.422202 -1.109441 -1.422957
v 1.423158 -1.112710 1.423121
v 1.423181 -1.112797 -1.422225
v 2.381309 -0.376853 -1.014292
v 1.017996 -1.280614 -2.377456
v 1.017969 -1.280852 2.378473
v -2.374508 -0.358646 1.016553
v -1.572134 -0.460712 -0.000876
v 1.579170 -0.479487 0.003171
v 0.001196 -1.229424 -1.575386
v 0.001171 -1.229828 1.576087
v 0.919207 -0.778833 -0.917605
v 0.918934 -0.778918 0.918659
v -0.917411 -0.777196 0.918284
v -0.917157 -0.776626 -0.918097
v 0.560816 0.553738 -0.553384
v 0.559795 0.552475 0.557655
v -0.551302 0.556976 0.556681
v -0.550284 0.558595 -0.554439
v 1.744554 -0.919357 -1.741657
v 1.744535 -0.919337 1.744407
v -1.741515 -0.911273 1.742668
v -1.741492 -0.910345 -1.743603
v 2.254904 -0.288748 0.003493
v 0.000552 -1.358253 -2.251040
v 0.000520 -1.358851 2.251268
v -2.247191 -0.267925 -0.000997
v 0.001763 -1.082782 0.000565
vn -0.140100 0.949900 0.279500
vn -0.139900 0.950000 -0.279100
vn 0.626300 0.779100 0.026900
vn 0.942900 0.333200 0.000100
vn 0.626100 0.779300 -0.026400
vn 0.352600 0.869400 -0.346200
vn -0.344000 0.872200 -0.347700
vn -0.344600 0.871300 0.349500
vn 0.351500 0.868600 0.349200
vn 0.887200 0.309600 -0.342100
vn 0.871600 0.346300 -0.347000
vn 0.871000 0.345700 0.349000
vn 0.886900 0.309400 0.343100
vn 0.321400 0.283000 0.903700
vn 0.348600 0.346600 0.870900
vn -0.347600 0.348300 0.870500
vn -0.321100 0.284200 0.903400
vn -0.885900 0.312700 0.342600
vn -0.869700 0.350000 0.348100
vn -0.869200 0.350600 -0.348600
vn -0.885600 0.313300 -0.342800
vn 0.350200 0.347900 -0.869700
vn 0.322200 0.284200 -0.903000
vn -0.320200 0.285400 -0.903300
vn -0.346200 0.349800 -0.870500
vn -0.315900 -0.938100 -0.142300
vn -0.191800 -0.934700 -0.299400
vn -0.123600 -0.875200 -0.467700
vn -0.330600 -0.928800 -0.167500
vn 0.127200 0.869500 0.477200
vn -0.125800 0.869700 0.477200
vn 0.196700 0.976500 0.087900
vn 0.001300 0.917300 0.398200
vn -0.191500 0.977300 0.090800
vn -0.125400 0.869900 -0.476900
vn 0.127700 0.869600 -0.477000
vn -0.191100 0.977400 -0.090600
vn 0.001900 0.917400 -0.398000
vn 0.197100 0.976500 -0.087300
vn 0.145800 0.949500 -0.277900
vn 0.145300 0.949500 0.278000
vn -0.615400 0.787900 -0.024400
vn -0.937200 0.348900 -0.000000
vn -0.615500 0.787800 0.024400
vn -0.192400 -0.934700 0.299000
vn -0.316200 -0.938000 0.141900
vn -0.330800 -0.928800 0.167000
vn -0.123800 -0.875200 0.467700
vn 0.126800 -0.880400 0.456900
vn 0.327000 -0.930700 0.164000
vn 0.306700 -0.941400 0.140600
vn 0.185800 -0.937100 0.295400
vn 0.327300 -0.930600 -0.164100
vn 0.126600 -0.879600 -0.458500
vn 0.186500 -0.936800 -0.296000
vn 0.307200 -0.941200 -0.140800
usemtl Material
s off
f 1//1 30//1 44//1 19//1
f 1//2 19//2 45//2 31//2
f 1//3 31//3 53//3 29//3
f 1//4 29//4 57//4 37//4
f 1//5 37//5 52//5 30//5
f 2//6 22//6 46//6 23//6
f 2//7 23//7 49//7 25//7
f 2//8 25//8 48//8 24//8
f 2//9 24//9 47//9 22//9
f 3//10 14//10 42//10 16//10
f 3//11 16//11 46//11 22//11
f 3//12 22//12 47//12 18//12
f 3//13 18//13 43//13 14//13
f 4//14 17//14 43//14 18//14
f 4//15 18//15 47//15 24//15
f 4//16 24//16 48//16 20//16
f 4//17 20//17 44//17 17//17
f 5//18 19//18 44//18 20//18
f 5//19 20//19 48//19 25//19
f 5//20 25//20 49//20 21//20
f 5//21 21//21 45//21 19//21
f 6//22 23//22 46//22 16//22
f 6//23 16//23 42//23 15//23
f 6//24 15//24 45//24 21//24
f 6//25 21//25 49//25 23//25
f 7//26 38//26 58//26 41//26
f 7//27 41//27 56//27 28//27
f 7//28 28//28 52//28 37//28
f 7//29 37//29 57//29 38//29
f 8//30 32//30 43//30 17//30
f 8//31 17//31 44//31 30//31
f 8//32 30//32 52//32 28//32
f 8//33 28//33 56//33 36//33
f 8//34 36//34 51//34 32//34
f 9//35 31//35 45//35 15//35
f 9//36 15//36 42//36 33//36
f 9//37 33//37 50//37 35//37
f 9//38 35//38 55//38 27//38
f 9//39 27//39 53//39 31//39
f 10//40 33//40 42//40 14//40
f 10//41 14//41 43//41 32//41
f 10//42 32//42 51//42 26//42
f 10//43 26//43 54//43 34//43
f 10//44 34//44 50//44 33//44
f 11//45 27//45 55//45 40//45
f 11//46 40//46 58//46 38//46
f 11//47 38//47 57//47 29//47
f 11//48 29//48 53//48 27//48
f 12//49 35//49 50//49 34//49
f 12//50 34//50 54//50 39//50
f 12//51 39//51 58//51 40//51
f 12//52 40//52 55//52 35//52
f 13//53 39//53 54//53 26//53
f 13//54 26//54 51//54 36//54
f 13//55 36//55 56//55 41//55
f 13//56 41//56 58//56 39//56
