# Blender v2.74 (sub 0) OBJ File: ''
# www.blender.org
mtllib fries.mtl
o Cube_Cube.004
v -1.161280 -1.168464 -1.043912
v -1.161280 1.154096 -1.177455
v -1.161280 -1.168464 -1.178287
v -1.161280 1.154096 -1.311830
v -1.004533 -1.168464 -1.043912
v -1.004533 1.154096 -1.177455
v -1.004533 -1.168464 -1.178287
v -1.004533 1.154096 -1.311830
vn -1.000000 -0.000000 0.000000
vn 0.000000 -0.057400 -0.998400
vn 1.000000 0.000000 0.000000
vn 0.000000 0.057400 0.998400
vn 0.000000 -1.000000 0.000000
vn 0.000000 1.000000 0.000000
usemtl None
s off
f 2//1 4//1 3//1 1//1
f 4//2 8//2 7//2 3//2
f 8//3 6//3 5//3 7//3
f 6//4 2//4 1//4 5//4
f 1//5 3//5 7//5 5//5
f 6//6 8//6 4//6 2//6
o Cube.001_Cube.005
v -0.965070 -1.033775 -0.681028
v -0.946091 0.959052 -0.884748
v -0.959745 -1.038954 -0.796502
v -0.940766 0.953874 -1.000222
v -0.830239 -1.034421 -0.674782
v -0.811260 0.958407 -0.878502
v -0.824914 -1.039599 -0.790255
v -0.805935 0.953229 -0.993976
vn -0.998900 0.004800 -0.046300
vn 0.045500 -0.102000 -0.993700
vn 0.998900 -0.004800 0.046300
vn -0.045500 0.102000 0.993700
vn -0.006800 -0.999000 0.044500
vn 0.006800 0.999000 -0.044500
usemtl None
s off
f 10//7 12//7 11//7 9//7
f 12//8 16//8 15//8 11//8
f 16//9 14//9 13//9 15//9
f 14//10 10//10 9//10 13//10
f 9//11 11//11 15//11 13//11
f 14//12 16//12 12//12 10//12
o Cube.002_Cube.006
v -1.003699 -0.996447 -0.487780
v -1.005465 1.004073 -0.593341
v -1.004263 -0.995901 -0.603489
v -1.006030 1.004618 -0.709051
v -0.868723 -0.996362 -0.488438
v -0.870489 1.004157 -0.593999
v -0.869287 -0.995817 -0.604147
v -0.871054 1.004703 -0.709709
vn -1.000000 -0.000600 0.004900
vn -0.004800 -0.052700 -0.998600
vn 1.000000 0.000600 -0.004900
vn 0.004800 0.052700 0.998600
vn 0.000600 -1.000000 -0.004700
vn -0.000600 1.000000 0.004700
usemtl None
s off
f 18//13 20//13 19//13 17//13
f 20//14 24//14 23//14 19//14
f 24//15 22//15 21//15 23//15
f 22//16 18//16 17//16 21//16
f 17//17 19//17 23//17 21//17
f 22//18 24//18 20//18 18//18
o Cube.003_Cube.007
v -1.157850 -1.096237 -0.766571
v -1.225098 1.225466 -0.898080
v -1.161671 -1.096227 -0.900891
v -1.228918 1.225476 -1.032400
v -1.001225 -1.091952 -0.771026
v -1.068473 1.229750 -0.902535
v -1.005046 -1.091942 -0.905346
v -1.072294 1.229760 -1.036855
vn -0.999200 -0.027300 0.028400
vn -0.026800 -0.057300 -0.998000
vn 0.999200 0.027300 -0.028400
vn 0.026800 0.057300 0.998000
vn 0.027300 -0.999600 -0.000900
vn -0.027300 0.999600 0.000900
usemtl None
s off
f 26//19 28//19 27//19 25//19
f 28//20 32//20 31//20 27//20
f 32//21 30//21 29//21 31//21
f 30//22 26//22 25//22 29//22
f 25//23 27//23 31//23 29//23
f 30//24 32//24 28//24 26//24
o Cube.004_Cube.008
v -1.135425 -0.937804 -0.420338
v -1.193334 1.061458 -0.533582
v -1.138716 -0.937795 -0.536003
v -1.196624 1.061467 -0.649248
v -1.000553 -0.934114 -0.424174
v -1.058462 1.065147 -0.537419
v -1.003843 -0.934106 -0.539840
v -1.061752 1.065156 -0.653084
vn -0.999200 -0.027300 0.028400
vn -0.026800 -0.057300 -0.998000
vn 0.999200 0.027300 -0.028400
vn 0.026800 0.057300 0.998000
vn 0.027300 -0.999600 -0.000900
vn -0.027300 0.999600 0.000900
usemtl None
s off
f 34//25 36//25 35//25 33//25
f 36//26 40//26 39//26 35//26
f 40//27 38//27 37//27 39//27
f 38//28 34//28 33//28 37//28
f 33//29 35//29 39//29 37//29
f 38//30 40//30 36//30 34//30
o Cube.005_Cube.009
v -1.198266 -0.846912 -0.583734
v -1.256175 1.152349 -0.696979
v -1.201556 -0.846903 -0.699400
v -1.259465 1.152358 -0.812645
v -1.063394 -0.843223 -0.587571
v -1.121302 1.156039 -0.700815
v -1.066684 -0.843214 -0.703236
v -1.124592 1.156047 -0.816481
vn -0.999200 -0.027300 0.028400
vn -0.026800 -0.057300 -0.998000
vn 0.999200 0.027300 -0.028400
vn 0.026800 0.057300 0.998000
vn 0.027300 -0.999600 -0.000900
vn -0.027300 0.999600 0.000900
usemtl None
s off
f 42//31 44//31 43//31 41//31
f 44//32 48//32 47//32 43//32
f 48//33 46//33 45//33 47//33
f 46//34 42//34 41//34 45//34
f 41//35 43//35 47//35 45//35
f 46//36 48//36 44//36 42//36
o Cube.006_Cube.010
v -1.174711 -0.922501 -0.856515
v -1.232619 1.076761 -0.969760
v -1.178001 -0.922492 -0.972181
v -1.235909 1.076769 -1.085426
v -1.039838 -0.918812 -0.860352
v -1.097747 1.080450 -0.973596
v -1.043128 -0.918803 -0.976017
v -1.101037 1.080459 -1.089262
vn -0.999200 -0.027300 0.028400
vn -0.026800 -0.057300 -0.998000
vn 0.999200 0.027300 -0.028400
vn 0.026800 0.057300 0.998000
vn 0.027300 -0.999600 -0.000900
vn -0.027300 0.999600 0.000900
usemtl None
s off
f 50//37 52//37 51//37 49//37
f 52//38 56//38 55//38 51//38
f 56//39 54//39 53//39 55//39
f 54//40 50//40 49//40 53//40
f 49//41 51//41 55//41 53//41
f 54//42 56//42 52//42 50//42
