# Blender v2.74 (sub 0) OBJ File: ''
# www.blender.org
mtllib ship.mtl
o Cylinder
v 0.840491 0.535921 -2.115472
v 0.496559 0.535921 -2.149346
v 0.496559 0.599813 -2.149346
v 0.496559 1.303514 -1.386410
v 0.840491 0.599813 -2.115472
v 0.691649 1.303514 -1.367195
v 1.171206 0.599813 -2.015151
v 0.879243 1.303514 -1.310289
v 1.475994 0.599813 -1.852238
v 1.052129 1.303514 -1.217879
v 1.743144 0.599813 -1.632994
v 1.203666 1.303514 -1.093516
v 1.962387 0.599813 -1.365844
v 1.328029 1.303514 -0.941980
v 2.125300 0.599813 -1.061056
v 1.420439 1.303514 -0.769093
v 2.225621 0.599813 -0.730341
v 1.477344 1.303514 -0.581500
v 2.259496 0.599813 -0.386409
v 1.496559 1.303514 -0.386410
v 2.225621 0.599813 -0.042477
v 1.477345 1.303514 -0.191319
v 2.125300 0.599813 0.288237
v 1.420439 1.303514 -0.003726
v 1.962387 0.599813 0.593026
v 1.328029 1.303514 0.169161
v 1.743144 0.599813 0.860175
v 1.203666 1.303514 0.320697
v 1.475994 0.599813 1.079419
v 1.052129 1.303514 0.445060
v 1.171206 0.599813 1.242332
v 0.879242 1.303514 0.537470
v 0.840491 0.599813 1.342654
v 0.691649 1.303514 0.594376
v 0.496558 0.599813 1.376528
v 0.496559 1.303514 0.613590
v 0.152626 0.599813 1.342654
v 0.301468 1.303514 0.594376
v -0.178089 0.599813 1.242331
v 0.113875 1.303514 0.537470
v -0.482877 0.599813 1.079419
v -0.059012 1.303514 0.445060
v -0.750027 0.599813 0.860175
v -0.210548 1.303514 0.320697
v -0.969270 0.599813 0.593025
v -0.334911 1.303514 0.169160
v -1.132183 0.599813 0.288236
v -0.427321 1.303514 -0.003727
v -1.232504 0.599813 -0.042479
v -0.484226 1.303514 -0.191320
v -1.266378 0.599813 -0.386411
v -0.503441 1.303514 -0.386410
v -1.232503 0.599813 -0.730343
v -0.484226 1.303514 -0.581501
v -1.132182 0.599813 -1.061058
v -0.427320 1.303514 -0.769094
v -0.969269 0.599813 -1.365846
v -0.334910 1.303514 -0.941981
v -0.750024 0.599813 -1.632995
v -0.210547 1.303514 -1.093517
v -0.482874 0.599813 -1.852239
v -0.059010 1.303514 -1.217880
v -0.178086 0.599813 -2.015152
v 0.113877 1.303514 -1.310290
v 0.152630 0.599813 -2.115472
v 0.301470 1.303514 -1.367195
v 1.171206 0.535921 -2.015151
v 1.475994 0.535921 -1.852237
v 1.743144 0.535921 -1.632994
v 1.962387 0.535921 -1.365844
v 2.125300 0.535921 -1.061056
v 2.225621 0.535921 -0.730341
v 2.259496 0.535921 -0.386409
v 2.225621 0.535921 -0.042477
v 2.125300 0.535921 0.288237
v 1.962387 0.535921 0.593026
v 1.743144 0.535921 0.860175
v 1.475994 0.535921 1.079419
v 1.171205 0.535921 1.242332
v 0.840490 0.535921 1.342653
v 0.496558 0.535921 1.376528
v 0.152626 0.535921 1.342653
v -0.178088 0.535921 1.242331
v -0.482877 0.535921 1.079419
v -0.750027 0.535921 0.860175
v -0.969270 0.535921 0.593025
v -1.132183 0.535921 0.288236
v -1.232504 0.535921 -0.042479
v -1.266378 0.535921 -0.386411
v -1.232503 0.535921 -0.730343
v -1.132182 0.535921 -1.061058
v -0.969269 0.535921 -1.365846
v -0.750024 0.535921 -1.632995
v -0.482874 0.535921 -1.852239
v -0.178085 0.535921 -2.015152
v 0.152630 0.535921 -2.115472
vn 0.098000 -0.000000 -0.995200
vn 0.066600 0.733400 -0.676500
vn -0.881900 -0.000000 -0.471400
vn 0.197300 0.733400 -0.650500
vn 0.773000 -0.000000 0.634400
vn 0.320400 0.733400 -0.599500
vn -0.956900 -0.000000 0.290300
vn 0.431200 0.733400 -0.525500
vn -0.098000 -0.000000 -0.995200
vn 0.525500 0.733400 -0.431200
vn 0.995200 0.000000 -0.098000
vn 0.599500 0.733400 -0.320400
vn -0.471400 -0.000000 0.881900
vn 0.650500 0.733400 -0.197300
vn -0.471400 -0.000000 -0.881900
vn 0.676500 0.733400 -0.066600
vn 0.290300 -0.000000 0.956900
vn 0.676500 0.733400 0.066600
vn 0.634400 -0.000000 -0.773000
vn 0.650500 0.733400 0.197300
vn -0.956900 -0.000000 -0.290300
vn 0.599500 0.733400 0.320400
vn 0.881900 0.000000 0.471400
vn 0.525500 0.733400 0.431200
vn -0.881900 -0.000000 0.471400
vn 0.431200 0.733400 0.525500
vn 0.956900 0.000000 -0.290300
vn 0.320400 0.733400 0.599500
vn -0.290300 -0.000000 0.956900
vn 0.197300 0.733400 0.650500
vn -0.634400 -0.000000 -0.773000
vn 0.066600 0.733400 0.676500
vn 0.471400 -0.000000 0.881900
vn -0.066600 0.733400 0.676500
vn 0.471400 -0.000000 -0.881900
vn -0.197300 0.733400 0.650500
vn -0.995200 -0.000000 -0.098000
vn -0.320400 0.733400 0.599500
vn 0.956900 0.000000 0.290300
vn -0.431200 0.733400 0.525500
vn -0.773000 -0.000000 0.634400
vn -0.525500 0.733400 0.431200
vn 0.881900 0.000000 -0.471400
vn -0.599500 0.733400 0.320400
vn -0.098000 -0.000000 0.995200
vn -0.650500 0.733400 0.197300
vn -0.773000 -0.000000 -0.634400
vn -0.676500 0.733400 0.066600
vn 0.634400 -0.000000 0.773000
vn -0.676500 0.733400 -0.066600
vn 0.290300 -0.000000 -0.956900
vn -0.650500 0.733400 -0.197300
vn -0.995200 -0.000000 0.098000
vn -0.599500 0.733400 -0.320400
vn 0.995200 0.000000 0.098000
vn -0.525500 0.733400 -0.431200
vn -0.634400 -0.000000 0.773000
vn -0.431200 0.733400 -0.525500
vn 0.098000 -0.000000 0.995200
vn 0.000000 -1.000000 -0.000000
vn -0.320400 0.733400 -0.599500
vn 0.000000 1.000000 0.000000
vn -0.066600 0.733400 -0.676500
vn -0.197300 0.733400 -0.650500
vn 0.773000 -0.000000 -0.634400
vn -0.290300 -0.000000 -0.956900
usemtl None
s off
f 3//1 5//1 1//1 2//1
f 3//2 4//2 6//2 5//2
f 55//3 57//3 92//3 91//3
f 5//4 6//4 8//4 7//4
f 25//5 27//5 77//5 76//5
f 7//6 8//6 10//6 9//6
f 47//7 49//7 88//7 87//7
f 9//8 10//8 12//8 11//8
f 65//9 3//9 2//9 96//9
f 11//10 12//10 14//10 13//10
f 17//11 19//11 73//11 72//11
f 13//12 14//12 16//12 15//12
f 39//13 41//13 84//13 83//13
f 15//14 16//14 18//14 17//14
f 61//15 63//15 95//15 94//15
f 17//16 18//16 20//16 19//16
f 31//17 33//17 80//17 79//17
f 19//18 20//18 22//18 21//18
f 9//19 11//19 69//19 68//19
f 21//20 22//20 24//20 23//20
f 53//21 55//21 91//21 90//21
f 23//22 24//22 26//22 25//22
f 23//23 25//23 76//23 75//23
f 25//24 26//24 28//24 27//24
f 45//25 47//25 87//25 86//25
f 27//26 28//26 30//26 29//26
f 15//27 17//27 72//27 71//27
f 29//28 30//28 32//28 31//28
f 37//29 39//29 83//29 82//29
f 31//30 32//30 34//30 33//30
f 59//31 61//31 94//31 93//31
f 33//32 34//32 36//32 35//32
f 29//33 31//33 79//33 78//33
f 35//34 36//34 38//34 37//34
f 7//35 9//35 68//35 67//35
f 37//36 38//36 40//36 39//36
f 51//37 53//37 90//37 89//37
f 39//38 40//38 42//38 41//38
f 21//39 23//39 75//39 74//39
f 41//40 42//40 44//40 43//40
f 43//41 45//41 86//41 85//41
f 43//42 44//42 46//42 45//42
f 13//43 15//43 71//43 70//43
f 45//44 46//44 48//44 47//44
f 35//45 37//45 82//45 81//45
f 47//46 48//46 50//46 49//46
f 57//47 59//47 93//47 92//47
f 49//48 50//48 52//48 51//48
f 27//49 29//49 78//49 77//49
f 51//50 52//50 54//50 53//50
f 5//51 7//51 67//51 1//51
f 53//52 54//52 56//52 55//52
f 49//53 51//53 89//53 88//53
f 55//54 56//54 58//54 57//54
f 19//55 21//55 74//55 73//55
f 57//56 58//56 60//56 59//56
f 41//57 43//57 85//57 84//57
f 59//58 60//58 62//58 61//58
f 33//59 35//59 81//59 80//59
f 2//60 1//60 67//60 68//60 69//60 70//60 71//60 72//60 73//60 74//60 75//60 76//60 77//60 78//60 79//60 80//60 81//60 82//60 83//60 84//60 85//60 86//60 87//60 88//60 89//60 90//60 91//60 92//60 93//60 94//60 95//60 96//60
f 61//61 62//61 64//61 63//61
f 6//62 4//62 66//62 64//62 62//62 60//62 58//62 56//62 54//62 52//62 50//62 48//62 46//62 44//62 42//62 40//62 38//62 36//62 34//62 32//62 30//62 28//62 26//62 24//62 22//62 20//62 18//62 16//62 14//62 12//62 10//62 8//62
f 65//63 66//63 4//63 3//63
f 63//64 64//64 66//64 65//64
f 11//65 13//65 70//65 69//65
f 63//66 65//66 96//66 95//66
