# Blender v2.79 (sub 0) OBJ File: ''
# www.blender.org
mtllib spin.mtl
o Cylinder_Cylinder.001
v 0.203958 1.737390 -1.561536
v 0.203958 2.112889 -0.854733
v 0.536938 1.737390 -1.528740
v 0.399048 2.112889 -0.835519
v 0.857123 1.737390 -1.431613
v 0.586641 2.112889 -0.778613
v 1.152206 1.737390 -1.273888
v 0.759528 2.112889 -0.686203
v 1.410849 1.737390 -1.061625
v 0.911065 2.112889 -0.561840
v 1.623112 1.737390 -0.802982
v 1.035428 2.112889 -0.410304
v 1.780838 1.737390 -0.507898
v 1.127837 2.112889 -0.237417
v 1.877964 1.737390 -0.187714
v 1.184743 2.112889 -0.049824
v 1.910760 1.737390 0.145267
v 1.203958 2.112889 0.145266
v 1.877964 1.737390 0.478247
v 1.184743 2.112889 0.340357
v 1.780838 1.737390 0.798431
v 1.127837 2.112889 0.527950
v 1.623112 1.737390 1.093515
v 1.035428 2.112889 0.700837
v 1.410849 1.737390 1.352158
v 0.911065 2.112889 0.852373
v 1.152206 1.737390 1.564421
v 0.759528 2.112889 0.976736
v 0.857122 1.737390 1.722147
v 0.586641 2.112889 1.069146
v 0.536938 1.737390 1.819273
v 0.399048 2.112889 1.126052
v 0.203957 1.737390 1.852069
v 0.203958 2.112889 1.145267
v -0.129024 1.737390 1.819273
v 0.008867 2.112889 1.126052
v -0.449208 1.737390 1.722146
v -0.178726 2.112889 1.069146
v -0.744292 1.737390 1.564420
v -0.351613 2.112889 0.976736
v -1.002934 1.737390 1.352157
v -0.503149 2.112889 0.852373
v -1.215197 1.737390 1.093514
v -0.627512 2.112889 0.700836
v -1.372923 1.737390 0.798430
v -0.719922 2.112889 0.527949
v -1.470049 1.737390 0.478246
v -0.776828 2.112889 0.340356
v -1.502845 1.737390 0.145265
v -0.796042 2.112889 0.145266
v -1.470048 1.737390 -0.187716
v -0.776827 2.112889 -0.049825
v -1.372921 1.737390 -0.507900
v -0.719921 2.112889 -0.237418
v -1.215195 1.737390 -0.802984
v -0.627511 2.112889 -0.410305
v -1.002932 1.737390 -1.061626
v -0.503148 2.112889 -0.561841
v -0.744289 1.737390 -1.273889
v -0.351611 2.112889 -0.686204
v -0.449205 1.737390 -1.431614
v -0.178724 2.112889 -0.778614
v -0.129020 1.737390 -1.528740
v 0.008869 2.112889 -0.835519
v 0.203958 1.558248 -1.561536
v 0.536938 1.558248 -1.528740
v 0.857123 1.558248 -1.431613
v 1.152206 1.558248 -1.273888
v 1.410849 1.558248 -1.061625
v 1.623112 1.558248 -0.802982
v 1.780838 1.558248 -0.507898
v 1.877964 1.558248 -0.187714
v 1.910760 1.558248 0.145267
v 1.877964 1.558248 0.478247
v 1.780838 1.558248 0.798431
v 1.623112 1.558248 1.093515
v 1.410849 1.558248 1.352158
v 1.152206 1.558248 1.564421
v 0.857122 1.558248 1.722147
v 0.536938 1.558248 1.819273
v 0.203957 1.558248 1.852069
v -0.129024 1.558248 1.819273
v -0.449208 1.558248 1.722146
v -0.744292 1.558248 1.564420
v -1.002934 1.558248 1.352157
v -1.215197 1.558248 1.093514
v -1.372923 1.558248 0.798430
v -1.470049 1.558248 0.478246
v -1.502845 1.558248 0.145265
v -1.470048 1.558248 -0.187716
v -1.372921 1.558248 -0.507900
v -1.215195 1.558248 -0.802984
v -1.002932 1.558248 -1.061626
v -0.744289 1.558248 -1.273889
v -0.449205 1.558248 -1.431614
v -0.129020 1.558248 -1.528740
v 0.370448 1.737390 -1.545138
v 0.301503 2.112889 -0.845126
v 0.203958 1.925139 -1.208135
v 0.467993 1.925139 -1.182129
v 0.697031 1.737390 -1.480176
v 0.492845 2.112889 -0.807066
v 0.721882 1.925139 -1.105113
v 1.004665 1.737390 -1.352750
v 0.673085 2.112889 -0.732408
v 0.955867 1.925139 -0.980045
v 1.281528 1.737390 -1.167756
v 0.835296 2.112889 -0.624022
v 1.160957 1.925139 -0.811733
v 1.516981 1.737390 -0.932303
v 0.973246 2.112889 -0.486072
v 1.329270 1.925139 -0.606643
v 1.701975 1.737390 -0.655440
v 1.081632 2.112889 -0.323860
v 1.454337 1.925139 -0.372658
v 1.829401 1.737390 -0.347806
v 1.156290 2.112889 -0.143620
v 1.531354 1.925139 -0.118769
v 1.894362 1.737390 -0.021224
v 1.194350 2.112889 0.047721
v 1.557359 1.925139 0.145267
v 1.894362 1.737390 0.311757
v 1.194351 2.112889 0.242812
v 1.531354 1.925139 0.409302
v 1.829401 1.737390 0.638339
v 1.156290 2.112889 0.434153
v 1.454338 1.925139 0.663191
v 1.701975 1.737390 0.945973
v 1.081632 2.112889 0.614393
v 1.329270 1.925139 0.897176
v 1.516981 1.737390 1.222837
v 0.973246 2.112889 0.776605
v 1.160957 1.925139 1.102266
v 1.281528 1.737390 1.458290
v 0.835296 2.112889 0.914555
v 0.955867 1.925139 1.270579
v 1.004664 1.737390 1.643284
v 0.673085 2.112889 1.022941
v 0.721882 1.925139 1.395646
v 0.697030 1.737390 1.770710
v 0.492845 2.112889 1.097599
v 0.467993 1.925139 1.472663
v 0.370448 1.737390 1.835671
v 0.301503 2.112889 1.135659
v 0.203957 1.925139 1.498668
v 0.037467 1.737390 1.835671
v 0.106412 2.112889 1.135659
v -0.060078 1.925139 1.472662
v -0.289116 1.737390 1.770710
v -0.084929 2.112889 1.097599
v -0.313967 1.925139 1.395646
v -0.596750 1.737390 1.643283
v -0.265169 2.112889 1.022941
v -0.547952 1.925139 1.270578
v -0.873613 1.737390 1.458289
v -0.427381 2.112889 0.914554
v -0.753042 1.925139 1.102265
v -1.109066 1.737390 1.222836
v -0.565331 2.112889 0.776605
v -0.921355 1.925139 0.897175
v -1.294060 1.737390 0.945972
v -0.673717 2.112889 0.614393
v -1.046422 1.925139 0.663190
v -1.421486 1.737390 0.638338
v -0.748375 2.112889 0.434153
v -1.123438 1.925139 0.409301
v -1.486447 1.737390 0.311755
v -0.786435 2.112889 0.242811
v -1.149443 1.925139 0.145265
v -1.486446 1.737390 -0.021225
v -0.786435 2.112889 0.047720
v -1.123438 1.925139 -0.118770
v -1.421485 1.737390 -0.347808
v -0.748374 2.112889 -0.143621
v -1.046421 1.925139 -0.372659
v -1.294058 1.737390 -0.655442
v -0.673716 2.112889 -0.323861
v -0.921353 1.925139 -0.606644
v -1.109064 1.737390 -0.932305
v -0.565330 2.112889 -0.486073
v -0.753040 1.925139 -0.811734
v -0.873611 1.737390 -1.167758
v -0.427380 2.112889 -0.624022
v -0.547950 1.925139 -0.980046
v -0.596747 1.737390 -1.352751
v -0.265168 2.112889 -0.732409
v -0.313965 1.925139 -1.105114
v -0.289113 1.737390 -1.480177
v -0.084928 2.112889 -0.807066
v -0.060076 1.925139 -1.182130
v 0.037469 1.737390 -1.545138
v 0.106413 2.112889 -0.845126
v 0.370448 1.558248 -1.545138
v 0.697031 1.558248 -1.480176
v 1.004665 1.558248 -1.352750
v 1.281528 1.558248 -1.167756
v 1.516981 1.558248 -0.932303
v 1.701975 1.558248 -0.655440
v 1.829401 1.558248 -0.347806
v 1.894362 1.558248 -0.021224
v 1.894362 1.558248 0.311757
v 1.829401 1.558248 0.638339
v 1.701975 1.558248 0.945973
v 1.516981 1.558248 1.222837
v 1.281528 1.558248 1.458290
v 1.004664 1.558248 1.643284
v 0.697030 1.558248 1.770710
v 0.370448 1.558248 1.835671
v 0.037467 1.558248 1.835671
v -0.289116 1.558248 1.770710
v -0.596750 1.558248 1.643283
v -0.873613 1.558248 1.458289
v -1.109066 1.558248 1.222836
v -1.294060 1.558248 0.945972
v -1.421486 1.558248 0.638338
v -1.486447 1.558248 0.311755
v -1.486446 1.558248 -0.021225
v -1.421485 1.558248 -0.347808
v -1.294058 1.558248 -0.655442
v -1.109064 1.558248 -0.932305
v -0.873611 1.558248 -1.167758
v -0.596747 1.558248 -1.352751
v -0.289113 1.558248 -1.480177
v 0.037469 1.558248 -1.545138
v 1.152206 1.647819 -1.273888
v 0.857123 1.647819 -1.431613
v 1.410849 1.647819 1.352158
v 1.623112 1.647819 1.093515
v -1.215197 1.647819 1.093514
v -1.002934 1.647819 1.352157
v -0.449205 1.647819 -1.431614
v -0.744289 1.647819 -1.273889
v 1.910760 1.647819 0.145267
v 1.877964 1.647819 -0.187714
v -0.129024 1.647819 1.819273
v 0.203957 1.647819 1.852069
v -1.372921 1.647819 -0.507900
v -1.470048 1.647819 -0.187716
v 1.410849 1.647819 -1.061625
v 1.152206 1.647819 1.564421
v -1.372923 1.647819 0.798430
v -0.129020 1.647819 -1.528740
v 1.877964 1.647819 0.478247
v -0.449208 1.647819 1.722146
v -1.215195 1.647819 -0.802984
v 1.623112 1.647819 -0.802982
v 0.857122 1.647819 1.722147
v 0.536938 1.647819 -1.528740
v 0.203958 1.647819 -1.561536
v -1.470049 1.647819 0.478246
v 1.780838 1.647819 0.798431
v -0.744292 1.647819 1.564420
v -1.002932 1.647819 -1.061626
v 1.780838 1.647819 -0.507898
v 0.536938 1.647819 1.819273
v -1.502845 1.647819 0.145265
v -1.486446 1.647819 -0.021225
v 0.370448 1.647819 1.835671
v 1.829401 1.647819 -0.347806
v -0.873611 1.647819 -1.167758
v -0.873613 1.647819 1.458289
v 1.701975 1.647819 0.945973
v 0.697031 1.647819 -1.480176
v -1.486447 1.647819 0.311755
v 0.697030 1.647819 1.770710
v 1.701975 1.647819 -0.655440
v -1.109064 1.647819 -0.932305
v -0.596750 1.647819 1.643283
v 1.829401 1.647819 0.638339
v 0.037469 1.647819 -1.545138
v -1.421486 1.647819 0.638338
v 0.370448 1.647819 -1.545138
v 1.004664 1.647819 1.643284
v 1.516981 1.647819 -0.932303
v -1.294058 1.647819 -0.655442
v -0.289116 1.647819 1.770710
v 1.894362 1.647819 0.311757
v -0.289113 1.647819 -1.480177
v -1.294060 1.647819 0.945972
v 1.281528 1.647819 1.458290
v 1.281528 1.647819 -1.167756
v -1.421485 1.647819 -0.347808
v 0.037467 1.647819 1.835671
v 1.894362 1.647819 -0.021224
v -0.596747 1.647819 -1.352751
v -1.109066 1.647819 1.222836
v 1.516981 1.647819 1.222837
v 1.004665 1.647819 -1.352750
v 0.071941 1.925139 -1.195132
v -0.187020 1.925139 -1.143622
v -0.430957 1.925139 -1.042580
v -0.650495 1.925139 -0.895890
v -0.837197 1.925139 -0.709189
v -0.983887 1.925139 -0.489652
v -1.084929 1.925139 -0.245715
v -1.136441 1.925139 0.013248
v -1.136441 1.925139 0.277283
v -1.084930 1.925139 0.536245
v -0.983889 1.925139 0.780183
v -0.837198 1.925139 0.999720
v -0.650497 1.925139 1.186422
v -0.430960 1.925139 1.333112
v -0.187023 1.925139 1.434154
v 0.071940 1.925139 1.485665
v 0.335975 1.925139 1.485665
v 0.594937 1.925139 1.434155
v 0.838875 1.925139 1.333112
v 1.058412 1.925139 1.186422
v 1.245113 1.925139 0.999721
v 1.391804 1.925139 0.780183
v 1.492846 1.925139 0.536246
v 1.544356 1.925139 0.277284
v 1.544356 1.925139 0.013249
v 1.492846 1.925139 -0.245713
v 1.391804 1.925139 -0.489650
v 1.245113 1.925139 -0.709188
v 1.058412 1.925139 -0.895889
v 0.838875 1.925139 -1.042579
v 0.594938 1.925139 -1.143621
v 0.335976 1.925139 -1.195132
vn 0.0462 0.8822 -0.4687
vn 0.1367 0.8822 -0.4507
vn 0.2220 0.8822 -0.4153
vn 0.2988 0.8822 -0.3640
vn 0.3640 0.8822 -0.2988
vn 0.4153 0.8822 -0.2220
vn 0.4507 0.8822 -0.1367
vn 0.4687 0.8822 -0.0462
vn 0.4687 0.8822 0.0462
vn 0.4507 0.8822 0.1367
vn 0.4153 0.8822 0.2220
vn 0.3640 0.8822 0.2988
vn 0.2988 0.8822 0.3640
vn 0.2220 0.8822 0.4153
vn 0.1367 0.8822 0.4507
vn 0.0462 0.8822 0.4687
vn -0.0462 0.8822 0.4687
vn -0.1367 0.8822 0.4507
vn -0.2220 0.8822 0.4153
vn -0.2988 0.8822 0.3640
vn -0.3640 0.8822 0.2988
vn -0.4153 0.8822 0.2220
vn -0.4507 0.8822 0.1367
vn -0.4687 0.8822 0.0462
vn -0.4687 0.8822 -0.0462
vn -0.4507 0.8822 -0.1367
vn -0.4153 0.8822 -0.2220
vn -0.3640 0.8822 -0.2988
vn -0.2988 0.8822 -0.3640
vn -0.2220 0.8822 -0.4153
vn 0.0000 1.0000 0.0000
vn -0.1367 0.8822 -0.4507
vn -0.0462 0.8822 -0.4687
vn 0.4714 0.0000 -0.8819
vn 0.0000 -1.0000 0.0000
vn 0.7730 0.0000 0.6344
vn -0.7730 0.0000 0.6344
vn -0.4714 0.0000 -0.8819
vn 0.9952 0.0000 -0.0980
vn -0.0980 0.0000 0.9952
vn -0.9569 0.0000 -0.2903
vn 0.6344 0.0000 -0.7730
vn 0.6344 0.0000 0.7730
vn -0.8819 0.0000 0.4714
vn -0.2903 0.0000 -0.9569
vn 0.9952 0.0000 0.0980
vn -0.2903 0.0000 0.9569
vn -0.8819 0.0000 -0.4714
vn 0.7730 0.0000 -0.6344
vn 0.4714 0.0000 0.8819
vn 0.0980 0.0000 -0.9952
vn -0.9569 0.0000 0.2903
vn -0.0980 0.0000 -0.9952
vn 0.9569 0.0000 0.2903
vn -0.4714 0.0000 0.8819
vn -0.7730 0.0000 -0.6344
vn 0.8819 0.0000 -0.4714
vn 0.2903 0.0000 0.9569
vn -0.9952 0.0000 0.0980
vn 0.2903 0.0000 -0.9569
vn 0.8819 0.0000 0.4714
vn -0.6344 0.0000 0.7730
vn -0.6344 0.0000 -0.7730
vn 0.9569 0.0000 -0.2903
vn 0.0980 0.0000 0.9952
vn -0.9952 0.0000 -0.0980
usemtl None
s off
f 320//1 98//1 4//1 100//1
f 319//2 102//2 6//2 103//2
f 318//3 105//3 8//3 106//3
f 317//4 108//4 10//4 109//4
f 316//5 111//5 12//5 112//5
f 315//6 114//6 14//6 115//6
f 314//7 117//7 16//7 118//7
f 313//8 120//8 18//8 121//8
f 312//9 123//9 20//9 124//9
f 311//10 126//10 22//10 127//10
f 310//11 129//11 24//11 130//11
f 309//12 132//12 26//12 133//12
f 308//13 135//13 28//13 136//13
f 307//14 138//14 30//14 139//14
f 306//15 141//15 32//15 142//15
f 305//16 144//16 34//16 145//16
f 304//17 147//17 36//17 148//17
f 303//18 150//18 38//18 151//18
f 302//19 153//19 40//19 154//19
f 301//20 156//20 42//20 157//20
f 300//21 159//21 44//21 160//21
f 299//22 162//22 46//22 163//22
f 298//23 165//23 48//23 166//23
f 297//24 168//24 50//24 169//24
f 296//25 171//25 52//25 172//25
f 295//26 174//26 54//26 175//26
f 294//27 177//27 56//27 178//27
f 293//28 180//28 58//28 181//28
f 292//29 183//29 60//29 184//29
f 291//30 186//30 62//30 187//30
f 4//31 98//31 2//31 192//31 64//31 189//31 62//31 186//31 60//31 183//31 58//31 180//31 56//31 177//31 54//31 174//31 52//31 171//31 50//31 168//31 48//31 165//31 46//31 162//31 44//31 159//31 42//31 156//31 40//31 153//31 38//31 150//31 36//31 147//31 34//31 144//31 32//31 141//31 30//31 138//31 28//31 135//31 26//31 132//31 24//31 129//31 22//31 126//31 20//31 123//31 18//31 120//31 16//31 117//31 14//31 114//31 12//31 111//31 10//31 108//31 8//31 105//31 6//31 102//31
f 290//32 189//32 64//32 190//32
f 289//33 192//33 2//33 99//33
f 288//34 225//34 68//34 195//34
f 65//35 193//35 66//35 194//35 67//35 195//35 68//35 196//35 69//35 197//35 70//35 198//35 71//35 199//35 72//35 200//35 73//35 201//35 74//35 202//35 75//35 203//35 76//35 204//35 77//35 205//35 78//35 206//35 79//35 207//35 80//35 208//35 81//35 209//35 82//35 210//35 83//35 211//35 84//35 212//35 85//35 213//35 86//35 214//35 87//35 215//35 88//35 216//35 89//35 217//35 90//35 218//35 91//35 219//35 92//35 220//35 93//35 221//35 94//35 222//35 95//35 223//35 96//35 224//35
f 287//36 227//36 77//36 204//36
f 286//37 229//37 86//37 213//37
f 285//38 231//38 95//38 222//38
f 284//39 233//39 73//39 200//39
f 283//40 235//40 82//40 209//40
f 282//41 237//41 91//41 218//41
f 281//42 239//42 69//42 196//42
f 280//43 240//43 78//43 205//43
f 279//44 241//44 87//44 214//44
f 278//45 242//45 96//45 223//45
f 277//46 243//46 74//46 201//46
f 276//47 244//47 83//47 210//47
f 275//48 245//48 92//48 219//48
f 274//49 246//49 70//49 197//49
f 273//50 247//50 79//50 206//50
f 272//51 248//51 66//51 193//51
f 271//52 250//52 88//52 215//52
f 270//53 249//53 65//53 224//53
f 269//54 251//54 75//54 202//54
f 268//55 252//55 84//55 211//55
f 267//56 253//56 93//56 220//56
f 266//57 254//57 71//57 198//57
f 265//58 255//58 80//58 207//58
f 264//59 256//59 89//59 216//59
f 263//60 226//60 67//60 194//60
f 262//61 228//61 76//61 203//61
f 261//62 230//62 85//62 212//62
f 260//63 232//63 94//63 221//63
f 259//64 234//64 72//64 199//64
f 258//65 236//65 81//65 208//65
f 257//66 238//66 90//66 217//66
f 256//66 257//66 217//66 89//66
f 49//66 170//66 257//66 256//66
f 170//66 51//66 238//66 257//66
f 255//65 258//65 208//65 80//65
f 31//65 143//65 258//65 255//65
f 143//65 33//65 236//65 258//65
f 254//64 259//64 199//64 71//64
f 13//64 116//64 259//64 254//64
f 116//64 15//64 234//64 259//64
f 253//63 260//63 221//63 93//63
f 57//63 182//63 260//63 253//63
f 182//63 59//63 232//63 260//63
f 252//62 261//62 212//62 84//62
f 39//62 155//62 261//62 252//62
f 155//62 41//62 230//62 261//62
f 251//61 262//61 203//61 75//61
f 21//61 128//61 262//61 251//61
f 128//61 23//61 228//61 262//61
f 248//60 263//60 194//60 66//60
f 3//60 101//60 263//60 248//60
f 101//60 5//60 226//60 263//60
f 250//59 264//59 216//59 88//59
f 47//59 167//59 264//59 250//59
f 167//59 49//59 256//59 264//59
f 247//58 265//58 207//58 79//58
f 29//58 140//58 265//58 247//58
f 140//58 31//58 255//58 265//58
f 246//57 266//57 198//57 70//57
f 11//57 113//57 266//57 246//57
f 113//57 13//57 254//57 266//57
f 245//56 267//56 220//56 92//56
f 55//56 179//56 267//56 245//56
f 179//56 57//56 253//56 267//56
f 244//55 268//55 211//55 83//55
f 37//55 152//55 268//55 244//55
f 152//55 39//55 252//55 268//55
f 243//54 269//54 202//54 74//54
f 19//54 125//54 269//54 243//54
f 125//54 21//54 251//54 269//54
f 242//53 270//53 224//53 96//53
f 63//53 191//53 270//53 242//53
f 191//53 1//53 249//53 270//53
f 241//52 271//52 215//52 87//52
f 45//52 164//52 271//52 241//52
f 164//52 47//52 250//52 271//52
f 249//51 272//51 193//51 65//51
f 1//51 97//51 272//51 249//51
f 97//51 3//51 248//51 272//51
f 240//50 273//50 206//50 78//50
f 27//50 137//50 273//50 240//50
f 137//50 29//50 247//50 273//50
f 239//49 274//49 197//49 69//49
f 9//49 110//49 274//49 239//49
f 110//49 11//49 246//49 274//49
f 237//48 275//48 219//48 91//48
f 53//48 176//48 275//48 237//48
f 176//48 55//48 245//48 275//48
f 235//47 276//47 210//47 82//47
f 35//47 149//47 276//47 235//47
f 149//47 37//47 244//47 276//47
f 233//46 277//46 201//46 73//46
f 17//46 122//46 277//46 233//46
f 122//46 19//46 243//46 277//46
f 231//45 278//45 223//45 95//45
f 61//45 188//45 278//45 231//45
f 188//45 63//45 242//45 278//45
f 229//44 279//44 214//44 86//44
f 43//44 161//44 279//44 229//44
f 161//44 45//44 241//44 279//44
f 227//43 280//43 205//43 77//43
f 25//43 134//43 280//43 227//43
f 134//43 27//43 240//43 280//43
f 225//42 281//42 196//42 68//42
f 7//42 107//42 281//42 225//42
f 107//42 9//42 239//42 281//42
f 238//41 282//41 218//41 90//41
f 51//41 173//41 282//41 238//41
f 173//41 53//41 237//41 282//41
f 236//40 283//40 209//40 81//40
f 33//40 146//40 283//40 236//40
f 146//40 35//40 235//40 283//40
f 234//39 284//39 200//39 72//39
f 15//39 119//39 284//39 234//39
f 119//39 17//39 233//39 284//39
f 232//38 285//38 222//38 94//38
f 59//38 185//38 285//38 232//38
f 185//38 61//38 231//38 285//38
f 230//37 286//37 213//37 85//37
f 41//37 158//37 286//37 230//37
f 158//37 43//37 229//37 286//37
f 228//36 287//36 204//36 76//36
f 23//36 131//36 287//36 228//36
f 131//36 25//36 227//36 287//36
f 226//34 288//34 195//34 67//34
f 5//34 104//34 288//34 226//34
f 104//34 7//34 225//34 288//34
f 191//33 289//33 99//33 1//33
f 63//33 190//33 289//33 191//33
f 190//33 64//33 192//33 289//33
f 188//32 290//32 190//32 63//32
f 61//32 187//32 290//32 188//32
f 187//32 62//32 189//32 290//32
f 185//30 291//30 187//30 61//30
f 59//30 184//30 291//30 185//30
f 184//30 60//30 186//30 291//30
f 182//29 292//29 184//29 59//29
f 57//29 181//29 292//29 182//29
f 181//29 58//29 183//29 292//29
f 179//28 293//28 181//28 57//28
f 55//28 178//28 293//28 179//28
f 178//28 56//28 180//28 293//28
f 176//27 294//27 178//27 55//27
f 53//27 175//27 294//27 176//27
f 175//27 54//27 177//27 294//27
f 173//26 295//26 175//26 53//26
f 51//26 172//26 295//26 173//26
f 172//26 52//26 174//26 295//26
f 170//25 296//25 172//25 51//25
f 49//25 169//25 296//25 170//25
f 169//25 50//25 171//25 296//25
f 167//24 297//24 169//24 49//24
f 47//24 166//24 297//24 167//24
f 166//24 48//24 168//24 297//24
f 164//23 298//23 166//23 47//23
f 45//23 163//23 298//23 164//23
f 163//23 46//23 165//23 298//23
f 161//22 299//22 163//22 45//22
f 43//22 160//22 299//22 161//22
f 160//22 44//22 162//22 299//22
f 158//21 300//21 160//21 43//21
f 41//21 157//21 300//21 158//21
f 157//21 42//21 159//21 300//21
f 155//20 301//20 157//20 41//20
f 39//20 154//20 301//20 155//20
f 154//20 40//20 156//20 301//20
f 152//19 302//19 154//19 39//19
f 37//19 151//19 302//19 152//19
f 151//19 38//19 153//19 302//19
f 149//18 303//18 151//18 37//18
f 35//18 148//18 303//18 149//18
f 148//18 36//18 150//18 303//18
f 146//17 304//17 148//17 35//17
f 33//17 145//17 304//17 146//17
f 145//17 34//17 147//17 304//17
f 143//16 305//16 145//16 33//16
f 31//16 142//16 305//16 143//16
f 142//16 32//16 144//16 305//16
f 140//15 306//15 142//15 31//15
f 29//15 139//15 306//15 140//15
f 139//15 30//15 141//15 306//15
f 137//14 307//14 139//14 29//14
f 27//14 136//14 307//14 137//14
f 136//14 28//14 138//14 307//14
f 134//13 308//13 136//13 27//13
f 25//13 133//13 308//13 134//13
f 133//13 26//13 135//13 308//13
f 131//12 309//12 133//12 25//12
f 23//12 130//12 309//12 131//12
f 130//12 24//12 132//12 309//12
f 128//11 310//11 130//11 23//11
f 21//11 127//11 310//11 128//11
f 127//11 22//11 129//11 310//11
f 125//10 311//10 127//10 21//10
f 19//10 124//10 311//10 125//10
f 124//10 20//10 126//10 311//10
f 122//9 312//9 124//9 19//9
f 17//9 121//9 312//9 122//9
f 121//9 18//9 123//9 312//9
f 119//8 313//8 121//8 17//8
f 15//8 118//8 313//8 119//8
f 118//8 16//8 120//8 313//8
f 116//7 314//7 118//7 15//7
f 13//7 115//7 314//7 116//7
f 115//7 14//7 117//7 314//7
f 113//6 315//6 115//6 13//6
f 11//6 112//6 315//6 113//6
f 112//6 12//6 114//6 315//6
f 110//5 316//5 112//5 11//5
f 9//5 109//5 316//5 110//5
f 109//5 10//5 111//5 316//5
f 107//4 317//4 109//4 9//4
f 7//4 106//4 317//4 107//4
f 106//4 8//4 108//4 317//4
f 104//3 318//3 106//3 7//3
f 5//3 103//3 318//3 104//3
f 103//3 6//3 105//3 318//3
f 101//2 319//2 103//2 5//2
f 3//2 100//2 319//2 101//2
f 100//2 4//2 102//2 319//2
f 97//1 320//1 100//1 3//1
f 1//1 99//1 320//1 97//1
f 99//1 2//1 98//1 320//1
